<svg width="38" height="10" viewBox="0 0 38 10" fill="none" xmlns="http://www.w3.org/2000/svg">
<path d="M0.758523 9V0.272727H6.53693V1.79403H2.60369V3.87358H6.15341V5.39489H2.60369V9H0.758523ZM10.2209 9.12784C9.55895 9.12784 8.98651 8.98722 8.50355 8.70597C8.02344 8.42187 7.6527 8.02699 7.39134 7.52131C7.12997 7.01278 6.99929 6.4233 6.99929 5.75284C6.99929 5.0767 7.12997 4.4858 7.39134 3.98011C7.6527 3.47159 8.02344 3.0767 8.50355 2.79545C8.98651 2.51136 9.55895 2.36932 10.2209 2.36932C10.8828 2.36932 11.4538 2.51136 11.9339 2.79545C12.4169 3.0767 12.7891 3.47159 13.0504 3.98011C13.3118 4.4858 13.4425 5.0767 13.4425 5.75284C13.4425 6.4233 13.3118 7.01278 13.0504 7.52131C12.7891 8.02699 12.4169 8.42187 11.9339 8.70597C11.4538 8.98722 10.8828 9.12784 10.2209 9.12784ZM10.2294 7.72159C10.5305 7.72159 10.782 7.63636 10.9837 7.46591C11.1854 7.29261 11.3374 7.05682 11.4396 6.75852C11.5447 6.46023 11.5973 6.12074 11.5973 5.74006C11.5973 5.35938 11.5447 5.01989 11.4396 4.72159C11.3374 4.4233 11.1854 4.1875 10.9837 4.0142C10.782 3.84091 10.5305 3.75426 10.2294 3.75426C9.92543 3.75426 9.66974 3.84091 9.46236 4.0142C9.25781 4.1875 9.10298 4.4233 8.99787 4.72159C8.8956 5.01989 8.84446 5.35938 8.84446 5.74006C8.84446 6.12074 8.8956 6.46023 8.99787 6.75852C9.10298 7.05682 9.25781 7.29261 9.46236 7.46591C9.66974 7.63636 9.92543 7.72159 10.2294 7.72159ZM16.4382 0.272727V9H14.6229V0.272727H16.4382ZM19.7077 0.272727V9H17.8924V0.272727H19.7077ZM24.1193 9.12784C23.4574 9.12784 22.8849 8.98722 22.402 8.70597C21.9219 8.42187 21.5511 8.02699 21.2898 7.52131C21.0284 7.01278 20.8977 6.4233 20.8977 5.75284C20.8977 5.0767 21.0284 4.4858 21.2898 3.98011C21.5511 3.47159 21.9219 3.0767 22.402 2.79545C22.8849 2.51136 23.4574 2.36932 24.1193 2.36932C24.7812 2.36932 25.3523 2.51136 25.8324 2.79545C26.3153 3.0767 26.6875 3.47159 26.9489 3.98011C27.2102 4.4858 27.3409 5.0767 27.3409 5.75284C27.3409 6.4233 27.2102 7.01278 26.9489 7.52131C26.6875 8.02699 26.3153 8.42187 25.8324 8.70597C25.3523 8.98722 24.7812 9.12784 24.1193 9.12784ZM24.1278 7.72159C24.429 7.72159 24.6804 7.63636 24.8821 7.46591C25.0838 7.29261 25.2358 7.05682 25.3381 6.75852C25.4432 6.46023 25.4957 6.12074 25.4957 5.74006C25.4957 5.35938 25.4432 5.01989 25.3381 4.72159C25.2358 4.4233 25.0838 4.1875 24.8821 4.0142C24.6804 3.84091 24.429 3.75426 24.1278 3.75426C23.8239 3.75426 23.5682 3.84091 23.3608 4.0142C23.1563 4.1875 23.0014 4.4233 22.8963 4.72159C22.794 5.01989 22.7429 5.35938 22.7429 5.74006C22.7429 6.12074 22.794 6.46023 22.8963 6.75852C23.0014 7.05682 23.1563 7.29261 23.3608 7.46591C23.5682 7.63636 23.8239 7.72159 24.1278 7.72159ZM29.6484 9L27.8672 2.45455H29.7038L30.718 6.85227H30.7777L31.8345 2.45455H33.6371L34.7109 6.8267H34.7663L35.7635 2.45455H37.5959L35.8189 9H33.897L32.772 4.88352H32.6911L31.5661 9H29.6484Z" fill="#6E8AEF"/>
</svg>
