<svg width="135" height="40" viewBox="0 0 135 40" fill="none" xmlns="http://www.w3.org/2000/svg">
<path d="M4.73 0C2.12 0 0 2.12 0 4.73V35.27C0 37.87 2.12 40 4.73 40H130.2C132.8 40 135 37.87 135 35.27V4.73C135 2.12 132.8 0 130.2 0H4.73ZM28.23 6.22C28.4 7.73 27.8 9.21 26.93 10.31C26.02 11.38 24.56 12.21 23.14 12.1C22.95 10.65 23.67 9.1 24.48 8.16C25.39 7.09 26.97 6.27 28.23 6.22ZM70.04 6.56H71.09V13.43H70.04V6.56ZM87.2 6.56H88.2V12.16C88.2 12.62 88.3 13.05 88.3 13.43H87.36V12.68C87.06 13.25 86.56 13.54 85.85 13.54C85.28 13.54 84.81 13.32 84.43 12.87C84.06 12.43 83.87 11.85 83.87 11.13C83.87 10.37 84.07 9.75 84.48 9.28C84.87 8.84 85.36 8.62 85.93 8.62C86.57 8.62 87.01 8.83 87.26 9.26L87.2 6.56ZM111.4 6.56H112.4V9.4H112.5C112.8 8.88 113.3 8.62 113.9 8.62C114.3 8.62 114.7 8.76 115 9.05C115.3 9.4 115.5 9.93 115.5 10.63V13.43H114.4V10.75C114.4 9.91 114.1 9.48 113.5 9.48C113 9.48 112.7 9.73 112.5 10.22C112.5 10.32 112.4 10.45 112.4 10.6V13.43H111.4V6.56ZM45.48 6.85C46.63 6.85 47.49 7.1 48.07 7.59C48.72 8.16 49.05 8.96 49.05 10.01C49.05 11.19 48.7 12.07 47.99 12.67C47.34 13.22 46.41 13.49 45.21 13.49C44.61 13.49 44.1 13.49 43.68 13.39V6.96C44.23 6.86 44.83 6.83 45.48 6.83V6.85ZM108.8 7.54V8.72H109.9V9.5H108.8V11.79C108.8 12.38 109 12.67 109.4 12.67C109.6 12.67 109.7 12.67 109.9 12.57V13.36C109.7 13.46 109.4 13.48 109.1 13.48C108.7 13.48 108.3 13.35 108.1 13.1C107.9 12.85 107.8 12.43 107.8 11.83V9.5H107.1V8.72H107.8V7.86L108.8 7.54ZM45.57 7.67C45.24 7.67 44.96 7.67 44.72 7.77V12.66H45.43C46.23 12.66 46.85 12.43 47.29 11.99C47.73 11.54 47.95 10.89 47.95 10.04C47.95 9.27 47.74 8.69 47.34 8.28C46.94 7.87 46.35 7.67 45.57 7.67ZM119.2 8.61C119.9 8.61 120.4 8.87 120.8 9.37C121.1 9.77 121.2 10.27 121.2 10.85V11.33H118C118 11.79 118.2 12.15 118.5 12.39C118.7 12.61 119.1 12.72 119.5 12.72C120 12.72 120.4 12.62 120.8 12.5L120.9 13.23C120.5 13.42 120 13.52 119.4 13.52C118.6 13.52 118.1 13.31 117.6 12.88C117.2 12.45 117 11.87 117 11.14C117 10.43 117.2 9.84 117.6 9.37C118 8.87 118.5 8.61 119.2 8.61ZM66.56 8.61C67 8.61 67.36 8.76 67.65 9.04C68.02 9.39 68.2 9.91 68.2 10.6V13.43H67.15V10.73C67.15 9.89 66.83 9.48 66.2 9.48C65.89 9.48 65.64 9.59 65.44 9.82C65.25 10.05 65.15 10.32 65.15 10.63V13.43H64.1V10.06V8.71H65.02L65.12 9.45C65.25 9.22 65.43 9.03 65.67 8.88C65.95 8.7 66.27 8.61 66.62 8.61H66.56ZM101.2 8.61C101.7 8.61 102 8.76 102.3 9.04C102.7 9.39 102.9 9.91 102.9 10.6V13.43H101.8V10.73C101.8 9.89 101.5 9.48 100.9 9.48C100.6 9.48 100.3 9.59 100.1 9.82C99.9 10.05 99.8 10.32 99.8 10.63V13.43H98.8V10.06C98.8 9.65 98.8 9.2 98.7 8.71H99.7V9.45C99.9 9.22 100.1 9.03 100.3 8.88C100.6 8.7 100.9 8.61 101.2 8.61ZM52.64 8.61C53.33 8.61 53.89 8.84 54.31 9.3C54.71 9.75 54.91 10.32 54.91 11.03C54.91 11.75 54.7 12.35 54.29 12.81C53.85 13.29 53.28 13.53 52.56 13.53C51.87 13.53 51.32 13.3 50.91 12.84C50.5 12.38 50.29 11.8 50.29 11.11C50.29 10.38 50.5 9.78 50.93 9.31C51.35 8.85 51.92 8.61 52.64 8.61ZM74.99 8.61C75.68 8.61 76.23 8.84 76.66 9.3C77.06 9.75 77.26 10.32 77.26 11.03C77.26 11.75 77.05 12.35 76.64 12.81C76.2 13.29 75.63 13.53 74.91 13.53C74.22 13.53 73.67 13.3 73.26 12.84C72.85 12.38 72.64 11.8 72.64 11.11C72.64 10.38 72.85 9.78 73.28 9.31C73.7 8.85 74.27 8.61 74.99 8.61ZM80.41 8.61C81.64 8.61 82.26 9.26 82.26 10.56V12.3C82.26 12.77 82.26 13.15 82.36 13.42H81.42L81.32 12.88C81 13.31 80.54 13.53 79.94 13.53C79.5 13.53 79.14 13.39 78.87 13.1C78.62 12.85 78.5 12.52 78.5 12.14C78.5 11.57 78.74 11.13 79.22 10.82C79.71 10.52 80.38 10.37 81.26 10.38V10.28C81.26 9.66 80.93 9.35 80.28 9.35C79.81 9.35 79.4 9.47 79.05 9.7L78.83 9.01C79.27 8.74 79.81 8.6 80.45 8.6L80.41 8.61ZM95 8.61C95.7 8.61 96.2 8.84 96.6 9.3C97 9.75 97.2 10.32 97.2 11.03C97.2 11.75 97 12.35 96.6 12.81C96.2 13.29 95.6 13.53 94.9 13.53C94.2 13.53 93.7 13.3 93.2 12.84C92.8 12.38 92.6 11.8 92.6 11.11C92.6 10.38 92.8 9.78 93.3 9.31C93.7 8.85 94.3 8.61 95 8.61ZM55.94 8.71H57.01L57.54 10.95C57.67 11.48 57.78 11.99 57.87 12.46C57.97 12.07 58.07 11.57 58.25 10.96L58.92 8.71H59.78L60.42 10.91C60.57 11.45 60.7 11.97 60.79 12.47C60.89 11.98 60.97 11.46 61.11 10.91L61.69 8.71H62.72L61.24 13.42H60.28L59.67 11.38C59.51 10.87 59.39 10.36 59.29 9.85C59.19 10.37 59.07 10.88 58.91 11.38L58.26 13.42H57.29L55.94 8.71ZM119.2 9.33C118.8 9.33 118.5 9.47 118.3 9.76C118.2 9.98 118.1 10.26 118 10.57H120.2C120.2 10.26 120.1 9.99 120 9.77C119.8 9.48 119.5 9.33 119.2 9.33ZM52.6 9.43C52.18 9.43 51.86 9.62 51.64 9.99C51.45 10.3 51.36 10.68 51.36 11.13C51.36 11.57 51.46 11.94 51.64 12.25C51.87 12.63 52.18 12.81 52.59 12.81C52.99 12.81 53.31 12.62 53.53 12.24C53.73 11.92 53.82 11.55 53.82 11.11C53.82 10.68 53.72 10.3 53.54 9.99C53.32 9.62 53.01 9.43 52.6 9.43ZM74.95 9.43C74.53 9.43 74.21 9.62 73.99 9.99C73.8 10.3 73.71 10.68 73.71 11.13C73.71 11.57 73.81 11.94 73.99 12.25C74.22 12.63 74.53 12.81 74.94 12.81C75.34 12.81 75.65 12.62 75.88 12.24C76.07 11.92 76.17 11.55 76.17 11.11C76.17 10.68 76.07 10.3 75.89 9.99C75.67 9.62 75.36 9.43 74.95 9.43ZM94.9 9.43C94.5 9.43 94.2 9.62 94 9.99C93.8 10.3 93.7 10.68 93.7 11.13C93.7 11.57 93.8 11.94 94 12.25C94.2 12.63 94.5 12.81 94.9 12.81C95.3 12.81 95.6 12.62 95.9 12.24C96.1 11.92 96.2 11.55 96.2 11.11C96.2 10.68 96.1 10.3 95.9 9.99C95.7 9.62 95.3 9.43 94.9 9.43ZM86.09 9.53C85.7 9.53 85.39 9.68 85.17 9.99C84.94 10.3 84.83 10.7 84.83 11.19C84.83 11.65 84.94 12.03 85.15 12.32C85.38 12.63 85.69 12.79 86.07 12.79C86.41 12.79 86.69 12.66 86.9 12.4C87.1 12.16 87.2 11.87 87.2 11.54V10.75V10.42C87.1 10.17 87.01 9.96 86.82 9.78C86.6264 9.61159 86.3765 9.52232 86.12 9.53H86.09ZM81.24 11.18C80.09 11.18 79.51 11.47 79.51 12.13C79.51 12.37 79.61 12.56 79.71 12.68C79.84 12.8 80.02 12.86 80.22 12.86C80.45 12.86 80.67 12.76 80.86 12.65C81.06 12.5 81.18 12.31 81.22 12.09V11.9L81.24 11.18ZM27.48 12.47H28.21C29.04 12.47 31.38 12.8 32.89 15C32.77 15.1 30.1 16.64 30.13 19.86C30.13 23.73 33.51 25 33.55 25.02C33.55 25.12 33.02 26.86 31.77 28.64C30.72 30.21 29.62 31.74 27.88 31.77C26.18 31.77 25.61 30.77 23.67 30.77C21.71 30.77 21.1 31.74 19.48 31.81C17.82 31.91 16.55 30.14 15.46 28.58C13.29 25.41 11.6 19.65 13.87 15.72C14.97 13.8 16.97 12.56 19.11 12.53C20.77 12.53 22.31 13.65 23.34 13.65C24.21 13.65 25.78 12.59 27.48 12.46V12.47ZM84.51 18C85.72 18 86.72 18.21 87.53 18.63L86.99 20.37C86.24 19.96 85.39 19.76 84.45 19.76C83.7 19.76 83.11 19.95 82.69 20.31C82.33 20.64 82.16 21.04 82.16 21.52C82.16 22.04 82.36 22.48 82.77 22.82C83.12 23.14 83.77 23.48 84.7 23.85C85.85 24.31 86.69 24.85 87.23 25.47C87.77 26.08 88 26.85 88 27.77C88 28.9 87.65 29.82 86.86 30.54C85.99 31.31 84.78 31.7 83.23 31.7C81.8 31.7 80.65 31.42 79.78 30.87L80.28 29.1C81.21 29.66 82.24 29.95 83.36 29.95C84.16 29.95 84.79 29.76 85.24 29.4C85.68 29.04 85.91 28.55 85.91 27.95C85.91 27.41 85.72 26.95 85.35 26.58C84.99 26.21 84.37 25.87 83.52 25.56C81.19 24.69 80.02 23.41 80.02 21.74C80.02 20.64 80.43 19.75 81.25 19.05C82.06 18.35 83.15 18 84.51 18ZM46.69 18.2H49.34L53.64 31.5H51.37L50.13 27.6H45.81L44.62 31.5H42.41L46.69 18.2ZM92.7 19.52V21.91H95.1V23.51H92.7V28.17C92.7 29.35 93.2 29.94 94 29.94C94.4 29.94 94.7 29.94 94.9 29.84L95 31.46C94.6 31.61 94 31.69 93.3 31.69C92.5 31.69 91.8 31.43 91.4 30.92C90.9 30.41 90.6 29.55 90.6 28.33V23.5H89.2V21.9H90.6V20.14L92.7 19.52ZM47.92 19.97C47.79 20.54 47.58 21.38 47.29 22.48L46.18 25.96H49.76L48.63 22.48C48.51 22.13 48.29 21.29 47.96 19.97H47.92ZM118.2 21.69C119.6 21.69 120.6 22.21 121.3 23.23C121.9 24.05 122.2 25.06 122.2 26.25C122.2 26.63 122.1 26.96 122.1 27.22H115.7C115.7 28.17 116 28.89 116.6 29.39C117.1 29.84 117.8 30.06 118.7 30.06C119.6 30.06 120.5 29.91 121.3 29.61L121.6 31.09C120.7 31.49 119.6 31.68 118.4 31.68C116.9 31.68 115.7 31.24 114.9 30.37C114 29.49 113.6 28.32 113.6 26.85C113.6 25.4 114 24.19 114.8 23.23C115.6 22.21 116.8 21.69 118.2 21.69ZM60.69 21.69C61.83 21.69 62.77 22.14 63.53 23.03C64.28 23.93 64.66 25.11 64.66 26.57C64.66 28.2 64.22 29.49 63.34 30.44C62.55 31.28 61.57 31.7 60.4 31.7C59.13 31.7 58.22 31.25 57.67 30.34V35.39H55.5V25.07C55.5 24.04 55.5 22.99 55.4 21.91H57.28L57.39 23.43C58.1 22.28 59.18 21.71 60.62 21.71L60.69 21.69ZM71.73 21.69C72.86 21.69 73.81 22.14 74.56 23.03C75.32 23.93 75.7 25.11 75.7 26.57C75.7 28.2 75.26 29.49 74.37 30.44C73.59 31.28 72.6 31.7 71.43 31.7C70.17 31.7 69.26 31.25 68.71 30.34V35.39H66.54V25.07C66.54 24.04 66.54 22.99 66.44 21.91H68.31L68.43 23.43C69.14 22.28 70.22 21.71 71.67 21.71L71.73 21.69ZM112.1 21.69H112.6V23.72C112.4 23.72 112.2 23.62 112 23.62C111.2 23.62 110.6 23.91 110.2 24.47C109.9 24.97 109.7 25.61 109.7 26.37V31.4H107.5L107.6 24.83C107.6 23.72 107.5 22.72 107.5 21.81H109.3L109.4 23.64H109.5C109.7 23.01 110.1 22.51 110.6 22.12C111 21.78 111.5 21.61 112.1 21.61V21.69ZM101.1 21.69C102.5 21.69 103.6 22.16 104.5 23.09C105.3 24 105.7 25.17 105.7 26.61C105.7 28.08 105.3 29.29 104.4 30.24C103.5 31.21 102.4 31.7 100.9 31.7C99.5 31.7 98.4 31.23 97.5 30.3C96.7 29.36 96.3 28.18 96.3 26.76C96.3 25.28 96.7 24.06 97.6 23.11C98.4 22.16 99.6 21.69 101.1 21.69ZM118 23.15C117.3 23.15 116.7 23.44 116.3 24.02C116 24.48 115.7 25.03 115.7 25.68H120.1C120.1 25.04 120 24.5 119.7 24.04C119.3 23.45 118.8 23.15 118 23.15ZM101 23.25C100.1 23.25 99.5 23.63 99 24.4C98.7 25.03 98.5 25.8 98.5 26.71C98.5 27.6 98.7 28.36 99 28.99C99.5 29.76 100.1 30.14 101 30.14C101.8 30.14 102.4 29.75 102.9 28.97C103.3 28.33 103.5 27.56 103.5 26.67C103.5 25.79 103.3 25.03 102.9 24.4C102.5 23.63 101.8 23.25 101 23.25ZM60 23.39C59.48 23.39 59 23.56 58.57 23.91C58.14 24.26 57.86 24.72 57.73 25.28C57.63 25.55 57.63 25.76 57.63 25.93V27.53C57.63 28.23 57.85 28.82 58.27 29.3C58.7 29.78 59.26 30.02 59.94 30.02C60.75 30.02 61.37 29.71 61.82 29.09C62.27 28.47 62.49 27.66 62.49 26.64C62.49 25.71 62.28 24.94 61.86 24.33C61.4 23.72 60.78 23.41 60 23.41V23.39ZM71.04 23.39C70.51 23.39 70.04 23.56 69.61 23.91C69.18 24.26 68.9 24.72 68.77 25.28C68.67 25.55 68.67 25.76 68.67 25.93V27.53C68.67 28.23 68.88 28.82 69.31 29.3C69.74 29.78 70.29 30.02 70.98 30.02C71.78 30.02 72.41 29.71 72.86 29.09C73.3 28.47 73.53 27.66 73.53 26.64C73.53 25.71 73.32 24.94 72.89 24.33C72.43 23.7 71.82 23.39 71.04 23.39Z" fill="black"/>
</svg>
