<svg width="789" height="226" viewBox="0 0 789 226" fill="none" xmlns="http://www.w3.org/2000/svg">
<g clip-path="url(#clip0_5_14)">
<path d="M788.18 202.76C788.184 205.723 787.6 208.657 786.461 211.392C785.323 214.127 783.653 216.609 781.548 218.694C779.442 220.778 776.944 222.424 774.198 223.536C771.452 224.648 768.512 225.203 765.55 225.17H22.0899C19.1715 225.224 16.2722 224.689 13.5655 223.596C10.8589 222.504 8.40064 220.876 6.33806 218.811C4.27547 216.745 2.65099 214.285 1.56191 211.577C0.472833 208.868 -0.0584305 205.968 -5.6392e-05 203.05V22.05C-0.0545167 19.136 0.47995 16.241 1.57131 13.5385C2.66266 10.8361 4.28844 8.38176 6.35118 6.32276C8.41392 4.26375 10.8712 2.64242 13.5756 1.55597C16.2801 0.469509 19.176 -0.0597091 22.0899 3.24971e-05H765.55C778.1 3.24971e-05 788.07 9.54003 788.07 22.08V203.08L788.18 202.76Z" fill="#1C1A16"/>
<mask id="mask0_5_14" style="mask-type:luminance" maskUnits="userSpaceOnUse" x="86" y="44" width="78" height="149">
<path d="M86.6 48.9V189.74C86.5146 190.418 86.6556 191.105 87.001 191.695C87.3464 192.284 87.8769 192.743 88.51 193L163.51 118.66L89.13 44.89C87.64 45.31 86.6 46.66 86.6 48.89" fill="white"/>
</mask>
<g mask="url(#mask0_5_14)">
<path d="M163.49 44.89H86.6001V192.97H163.49V44.89Z" fill="url(#paint0_linear_5_14)"/>
</g>
<mask id="mask1_5_14" style="mask-type:luminance" maskUnits="userSpaceOnUse" x="89" y="44" width="96" height="75">
<path d="M89.1299 44.89L163.49 118.62L184.14 98.14L153.14 80.22L152.98 80.13H152.9H152.83H152.75L93.0599 45.55C92.1886 45.0479 91.2052 44.7728 90.1999 44.75C89.8387 44.7502 89.479 44.7973 89.1299 44.89Z" fill="white"/>
</mask>
<g mask="url(#mask1_5_14)">
<path d="M184.14 44.75H89.1299V118.62H184.14V44.75Z" fill="url(#paint1_linear_5_14)"/>
</g>
<mask id="mask2_5_14" style="mask-type:luminance" maskUnits="userSpaceOnUse" x="88" y="118" width="97" height="76">
<path d="M88.51 193C89.0503 193.146 89.6151 193.177 90.1681 193.091C90.721 193.004 91.2497 192.803 91.72 192.5L100.4 187.5L153.1 157L168.62 148L184.14 139L163.49 118.53L88.51 193Z" fill="white"/>
</mask>
<g mask="url(#mask2_5_14)">
<path d="M184.14 118.62H88.51V193.26H184.14V118.62Z" fill="url(#paint2_linear_5_14)"/>
</g>
<mask id="mask3_5_14" style="mask-type:luminance" maskUnits="userSpaceOnUse" x="163" y="98" width="54" height="42">
<path d="M163.49 118.62L184.14 139.09L206.84 125.99L213.98 121.87C217.36 119.87 217.16 117.26 214.47 115.64L214.28 115.54L214.19 115.48C211.43 114 187.58 100.14 184.48 98.33L184.14 98.14L163.49 118.62Z" fill="white"/>
</mask>
<g mask="url(#mask3_5_14)">
<path d="M217.36 98.14H163.49V139.1H217.36V98.14Z" fill="url(#paint3_linear_5_14)"/>
</g>
<path d="M570.67 148.42C567.951 148.455 565.255 147.913 562.76 146.83C560.361 145.747 558.291 144.05 556.76 141.91H556.27C556.588 144.351 556.752 146.809 556.76 149.27V167.52H550V103.27H555.46L556.38 109.34H556.71C558.222 107.097 560.289 105.285 562.71 104.08C565.187 102.96 567.882 102.407 570.6 102.46C576.48 102.46 581.017 104.46 584.21 108.46C587.403 112.46 589.003 118.097 589.01 125.37C589.01 132.65 587.387 138.317 584.14 142.37C580.893 146.423 576.38 148.423 570.6 148.37M569.6 108.12C565.06 108.12 561.783 109.373 559.77 111.88C557.757 114.387 556.717 118.387 556.65 123.88V125.37C556.65 131.597 557.69 136.057 559.77 138.75C561.85 141.443 565.183 142.777 569.77 142.75C571.542 142.807 573.3 142.41 574.875 141.596C576.45 140.782 577.791 139.579 578.77 138.1C580.937 135 582.023 130.723 582.03 125.27C582.037 119.817 580.95 115.577 578.77 112.55C577.731 111.109 576.349 109.95 574.75 109.177C573.151 108.403 571.385 108.04 569.61 108.12" fill="#FBFBFB"/>
<path d="M604.62 84.66H597.91V147.62H604.62V84.66Z" fill="#FBFBFB"/>
<path d="M643.24 147.61L641.91 141.3H641.58C639.864 143.689 637.61 145.642 635 147C632.385 148.057 629.579 148.558 626.76 148.47C622.367 148.47 618.923 147.34 616.43 145.08C613.937 142.82 612.687 139.597 612.68 135.41C612.68 126.45 619.843 121.757 634.17 121.33L641.69 121.08V118.33C641.69 114.85 640.95 112.33 639.45 110.62C637.95 108.91 635.55 108.14 632.27 108.14C628.57 108.14 624.387 109.27 619.72 111.53L617.66 106.4C619.931 105.179 622.342 104.239 624.84 103.6C627.397 102.937 630.028 102.601 632.67 102.6C637.96 102.6 641.87 103.77 644.43 106.12C646.99 108.47 648.25 112.23 648.25 117.41V147.67L643.24 147.61ZM628.07 142.88C632.25 142.88 635.533 141.733 637.92 139.44C640.307 137.147 641.5 133.937 641.5 129.81V125.81L634.78 126.09C629.447 126.277 625.597 127.107 623.23 128.58C622.074 129.296 621.134 130.312 620.511 131.52C619.888 132.728 619.604 134.083 619.69 135.44C619.62 136.473 619.782 137.509 620.164 138.471C620.546 139.433 621.14 140.297 621.9 141C623.657 142.364 625.851 143.039 628.07 142.9" fill="#FBFBFB"/>
<path d="M652.12 103.27H659.32L669 128.56C670.612 132.632 671.948 136.808 673 141.06H673.32C673.67 139.68 674.41 137.33 675.52 134C676.63 130.67 680.3 120.43 686.52 103.27H693.72L674.66 153.76C672.773 158.753 670.567 162.297 668.04 164.39C665.424 166.517 662.129 167.628 658.76 167.52C656.717 167.52 654.681 167.289 652.69 166.83V161.45C654.334 161.795 656.01 161.96 657.69 161.94C662.303 161.94 665.593 159.35 667.56 154.17L670.03 147.86L652.12 103.27Z" fill="#FBFBFB"/>
<path d="M446.25 107.39C448.38 109.15 452.83 112.86 452.83 119.91C452.83 126.77 448.94 130.03 445.04 133.08C443.83 134.29 442.45 135.59 442.45 137.63C442.45 139.67 443.83 140.78 444.86 141.63L448.2 144.22C452.28 147.65 455.99 150.81 455.99 157.22C455.99 165.94 447.55 174.75 431.6 174.75C418.15 174.75 411.66 168.35 411.66 161.48C411.66 158.14 413.32 153.42 418.8 150.16C424.54 146.64 432.34 146.16 436.51 145.9C435.21 144.23 433.73 142.47 433.73 139.6C433.758 138.338 434.076 137.099 434.66 135.98C433.66 136.07 432.61 136.16 431.66 136.16C421.84 136.16 416.27 128.83 416.27 121.6C416.317 119.224 416.871 116.886 417.896 114.743C418.92 112.599 420.391 110.699 422.21 109.17C427.49 104.81 433.8 104.07 438.81 104.07H457.91L452 107.39H446.25ZM439.66 148.57C438.953 148.491 438.241 148.461 437.53 148.48C434.232 148.542 430.956 149.043 427.79 149.97C425.79 150.7 419.79 152.97 419.79 159.52C419.79 166.07 426.19 170.84 436.11 170.84C445.01 170.84 449.75 166.56 449.75 160.84C449.75 156.1 446.69 153.6 439.63 148.59M442.33 130.97C444.46 128.83 444.64 125.87 444.64 124.2C444.64 117.52 440.64 107.13 432.96 107.13C431.721 107.148 430.5 107.43 429.379 107.958C428.258 108.485 427.263 109.246 426.46 110.19C425.028 112.184 424.323 114.609 424.46 117.06C424.46 123.27 428.08 133.57 436.06 133.57C438.412 133.512 440.66 132.586 442.37 130.97" fill="#FBFBFB"/>
<path d="M387.86 147.09C373.14 147.09 365.27 135.61 365.27 125.23C365.27 113.1 375.17 102.74 389.27 102.74C392.17 102.676 395.054 103.195 397.749 104.266C400.445 105.338 402.898 106.94 404.962 108.979C407.026 111.017 408.66 113.449 409.766 116.131C410.872 118.813 411.428 121.689 411.4 124.59C411.4 135.51 402.98 147.09 387.88 147.09M399.45 139.59C401.68 136.59 402.24 132.92 402.24 129.31C402.24 121.16 398.35 105.6 386.86 105.6C383.798 105.63 380.846 106.747 378.53 108.75C374.92 111.99 374.27 116.07 374.27 120.05C374.27 129.21 378.81 144.3 390.01 144.3C391.841 144.3 393.646 143.874 395.285 143.057C396.923 142.239 398.349 141.052 399.45 139.59Z" fill="#FBFBFB"/>
<path d="M337.67 147.09C322.95 147.09 315.07 135.61 315.07 125.23C315.07 113.1 324.99 102.74 339.07 102.74C341.97 102.676 344.854 103.195 347.549 104.266C350.245 105.338 352.698 106.94 354.762 108.979C356.826 111.017 358.46 113.449 359.566 116.131C360.672 118.813 361.228 121.689 361.2 124.59C361.2 135.51 352.78 147.09 337.68 147.09M349.26 139.59C351.48 136.59 352.03 132.92 352.03 129.31C352.03 121.16 348.14 105.6 336.66 105.6C333.598 105.63 330.646 106.747 328.33 108.75C324.72 111.99 324.07 116.07 324.07 120.05C324.07 129.21 328.6 144.3 339.81 144.3C341.642 144.3 343.449 143.874 345.089 143.057C346.729 142.239 348.157 141.053 349.26 139.59Z" fill="#FBFBFB"/>
<path d="M308 145.64L294.69 148.71C289.619 149.636 284.483 150.165 279.33 150.29C253.63 150.29 243.85 131.39 243.85 116.59C243.85 98.53 257.73 81.77 281.47 81.77C286.285 81.7954 291.075 82.4681 295.71 83.77C300.131 84.8893 304.301 86.8334 308 89.5L300.27 96.85L297 97.6L299.33 93.87C296.17 90.8 290.39 85.12 279.41 85.12C264.7 85.12 253.62 96.3 253.62 112.59C253.62 130.09 266.28 146.59 286.57 146.59C290.637 146.69 294.675 145.895 298.4 144.26V129.26L284.34 130L291.79 126H311.52L309.11 128.32C308.86 128.491 308.647 128.711 308.485 128.967C308.323 129.224 308.216 129.51 308.17 129.81C308.08 130.65 307.99 133.36 307.99 134.28L308 145.64Z" fill="#FBFBFB"/>
<path d="M475.68 143C472.6 142.72 471.96 142.16 471.96 138.52V85.79C471.96 85.59 471.96 85.39 472.01 85.19C472.39 81.94 473.32 81.38 476.21 79.7H462.89L455.89 83.05H463V140.54C463 142.39 462.64 142.68 460.49 145.47H477L480.45 143.47C478.87 143.27 477.28 143.18 475.7 143" fill="#FBFBFB"/>
<path d="M513.56 143.81C512.56 144.37 511.56 145.02 510.56 145.48C507.719 146.699 504.65 147.296 501.56 147.23C497.174 147.428 492.847 146.161 489.26 143.63C482.7 139 479.84 131.05 479.84 124.12C479.84 109.79 491.48 102.76 501.01 102.76C504.366 102.718 507.667 103.615 510.54 105.35C513.77 107.476 516.078 110.744 517 114.5L495.28 123.29L488.16 123.84C490.46 135.58 498.42 142.42 507.16 142.42C511.88 142.42 515.3 140.76 518.44 139.19L513.56 143.81ZM504.87 116.26C506.63 115.61 507.55 115.05 507.55 113.76C507.55 110.07 503.39 105.76 498.4 105.76C494.69 105.76 487.76 108.63 487.76 118.61C487.76 120.18 487.95 121.85 488.05 123.52L504.87 116.26Z" fill="#FBFBFB"/>
<path d="M522.49 103.39V109.5H521.74V103.39H519.73V102.76H524.5V103.39H522.49Z" fill="#FBFBFB"/>
<path d="M530.8 109.5V103.34H530.77L528.89 109.5H528.31L526.41 103.34H526.39V109.5H525.72V102.76H526.87L528.59 108.2H528.61L530.3 102.76H531.47V109.5H530.8Z" fill="#FBFBFB"/>
<path d="M262.35 63.6399H257.72C257.445 61.8037 257.003 59.9962 256.4 58.2399H249.72C249.092 59.9913 248.636 61.7999 248.36 63.6399H244C244 63.2733 245.123 60.1899 247.37 54.3899C249.617 48.5899 250.743 45.3999 250.75 44.8199H256.21C256.21 45.3666 257.23 48.5099 259.27 54.2499C261.31 59.9899 262.33 63.1199 262.33 63.6399M255.65 55.4799C254.688 52.8335 253.86 50.1401 253.17 47.4099H253C252.283 50.1412 251.428 52.8346 250.44 55.4799H255.65Z" fill="#FCFCFD"/>
<path d="M281 63.64H277.43C277.43 63.2467 276.097 61.1601 273.43 57.3801C270.66 53.3801 269.07 50.6801 268.69 49.2201H268.46C268.687 51.1185 268.807 53.0281 268.82 54.94C268.82 57.32 268.887 60.22 269.02 63.64H265.46C265.607 60.66 265.68 57.38 265.68 53.8C265.68 50.22 265.607 47.22 265.46 44.8H269.76C269.76 45.3067 270.95 47.3467 273.33 50.92C275.863 54.7 277.317 57.2667 277.69 58.62H277.91C277.695 56.7007 277.581 54.7714 277.57 52.84C277.57 50.2334 277.5 47.5667 277.36 44.84H281C280.86 47.23 280.79 50.23 280.79 53.84C280.79 57.45 280.86 60.74 281 63.68" fill="#FCFCFD"/>
<path d="M301.94 53.58C301.978 56.2126 301.041 58.7663 299.31 60.75C298.392 61.7836 297.252 62.5966 295.976 63.1282C294.7 63.6597 293.32 63.8962 291.94 63.82C290.507 63.82 288.54 63.76 286.04 63.64C286.16 60.73 286.23 57.45 286.23 53.8C286.23 50.15 286.16 47.3 286.04 44.8H288.57C288.98 44.8 289.57 44.8 290.42 44.8L292.02 44.75C295.5 44.75 298.023 45.62 299.59 47.36C301.143 49.0624 301.985 51.2958 301.94 53.6M297.99 54.23C298.044 52.5239 297.467 50.8577 296.37 49.55C295.741 48.8838 294.971 48.3672 294.116 48.0384C293.261 47.7095 292.343 47.5768 291.43 47.65C290.858 47.6596 290.287 47.703 289.72 47.78C289.82 49.7 289.87 51.72 289.87 53.78C289.87 56.08 289.92 58.37 290.01 60.63C290.629 60.7575 291.259 60.8211 291.89 60.82C292.757 60.8877 293.627 60.7479 294.428 60.4123C295.23 60.0766 295.94 59.5548 296.5 58.89C297.512 57.536 298.037 55.8798 297.99 54.19" fill="#FCFCFD"/>
<path d="M321.26 63.64H317C316.396 61.4425 315.533 59.3244 314.43 57.33C314.081 56.9112 313.636 56.5832 313.133 56.3742C312.629 56.1652 312.083 56.0814 311.54 56.13H309.93C309.93 58.61 309.93 61.13 310.06 63.63H306.06C306.187 60.7167 306.25 57.4367 306.25 53.79C306.25 50.2833 306.187 47.2833 306.06 44.79H308.56H310.38C311.3 44.79 312.15 44.74 312.93 44.74C317.35 44.74 319.56 46.2567 319.56 49.29C319.56 51.68 318.3 53.36 315.78 54.29V54.51C316.896 54.9057 317.814 55.7197 318.34 56.78C319.508 58.9894 320.511 61.2824 321.34 63.64M315.92 50.34C315.92 48.4267 314.687 47.47 312.22 47.47C311.416 47.4625 310.612 47.5295 309.82 47.67C309.92 49.16 309.98 51.11 309.98 53.51H311.32C314.393 53.51 315.927 52.4433 315.92 50.31" fill="#FCFCFD"/>
<path d="M342 53.89C342.094 56.6022 341.117 59.2424 339.28 61.24C338.435 62.181 337.398 62.9288 336.238 63.4327C335.079 63.9366 333.824 64.1847 332.56 64.16C331.366 64.1872 330.18 63.9625 329.079 63.5007C327.978 63.039 326.987 62.3505 326.17 61.48C325.313 60.5712 324.644 59.5013 324.203 58.3324C323.762 57.1635 323.557 55.9187 323.6 54.67C323.504 51.9546 324.481 49.3107 326.32 47.31C327.16 46.3743 328.191 45.6295 329.343 45.1258C330.496 44.6221 331.742 44.3712 333 44.39C334.192 44.3635 335.377 44.5875 336.478 45.0474C337.579 45.5073 338.571 46.1929 339.39 47.06C340.255 47.969 340.932 49.0408 341.38 50.2133C341.828 51.3857 342.039 52.6355 342 53.89ZM338 54.3C338.08 52.5363 337.535 50.8008 336.46 49.4C336.011 48.8134 335.433 48.3384 334.77 48.0123C334.108 47.6862 333.378 47.5177 332.64 47.52C331.933 47.5258 331.238 47.7015 330.613 48.0321C329.988 48.3628 329.452 48.8388 329.05 49.42C328.031 50.8039 327.513 52.4929 327.58 54.21C327.504 55.9718 328.053 57.7037 329.13 59.1C329.574 59.6877 330.149 60.1649 330.808 60.4944C331.467 60.8239 332.193 60.997 332.93 61C333.637 60.9951 334.332 60.8198 334.957 60.4891C335.582 60.1583 336.118 59.6819 336.52 59.1C337.544 57.7144 338.066 56.0216 338 54.3Z" fill="#FCFCFD"/>
<path d="M350.16 63.64H346.07C346.19 60.64 346.26 57.38 346.26 53.8C346.26 50.22 346.19 47.29 346.07 44.8H350.16C350.027 47.2334 349.963 50.2334 349.97 53.8C349.977 57.3667 350.04 60.6467 350.16 63.64Z" fill="#FCFCFD"/>
<path d="M371.11 53.58C371.148 56.2126 370.211 58.7663 368.48 60.75C367.562 61.7842 366.423 62.5975 365.147 63.1292C363.87 63.6608 362.49 63.897 361.11 63.82C359.683 63.82 357.717 63.76 355.21 63.64C355.33 60.73 355.4 57.45 355.4 53.8C355.4 50.15 355.33 47.3 355.21 44.8H357.74C358.15 44.8 358.74 44.8 359.59 44.8L361.19 44.75C364.67 44.75 367.193 45.62 368.76 47.36C370.313 49.0624 371.154 51.2958 371.11 53.6M367.16 54.23C367.219 52.5231 366.641 50.8553 365.54 49.55C364.912 48.8826 364.142 48.3652 363.287 48.0363C362.432 47.7074 361.513 47.5753 360.6 47.65C360.031 47.6597 359.464 47.7031 358.9 47.78C358.99 49.7 359.04 51.72 359.04 53.78C359.04 56.08 359.04 58.37 359.19 60.63C359.805 60.7575 360.432 60.8212 361.06 60.82C361.927 60.8885 362.797 60.7491 363.599 60.4134C364.401 60.0777 365.111 59.5554 365.67 58.89C366.686 57.5382 367.212 55.8805 367.16 54.19" fill="#FCFCFD"/>
<path d="M398.91 63.6399H394.28C394.005 61.8045 393.566 59.9974 392.97 58.2399H386.29C385.656 59.9897 385.201 61.7988 384.93 63.6399H380.58C380.58 63.2733 381.703 60.1899 383.95 54.3899C386.197 48.5899 387.323 45.3999 387.33 44.8199H392.79C392.79 45.3666 393.81 48.5099 395.85 54.2499C397.89 59.9899 398.91 63.1199 398.91 63.6399ZM392.23 55.4799C391.268 52.8344 390.443 50.1408 389.76 47.4099H389.52C389.52 47.7899 388.67 50.4699 386.97 55.4799H392.23Z" fill="#FCFCFD"/>
<path d="M415.77 49.75C415.836 50.7525 415.634 51.7544 415.184 52.6526C414.734 53.5508 414.052 54.3128 413.21 54.86C411.312 56.0026 409.124 56.5721 406.91 56.5C406.46 56.5 406.13 56.5 405.91 56.5C405.91 58.32 405.963 60.71 406.07 63.67H402C402.12 60.89 402.19 57.61 402.19 53.83C402.19 50.36 402.12 47.37 402 44.83H404.51C404.87 44.83 405.51 44.83 406.57 44.83C407.63 44.83 408.46 44.78 409.2 44.78C410.847 44.7107 412.477 45.1355 413.88 46C414.499 46.406 415.001 46.9685 415.332 47.6306C415.664 48.2927 415.815 49.0308 415.77 49.77M412.04 50.57C412.04 48.4967 410.673 47.4634 407.94 47.47C407.211 47.4724 406.484 47.5461 405.77 47.69C405.87 49.51 405.93 51.57 405.93 53.88C406.17 53.88 406.45 53.88 406.76 53.88C410.28 53.88 412.04 52.76 412.04 50.54" fill="#FCFCFD"/>
<path d="M433.11 49.75C433.174 50.7522 432.971 51.7533 432.521 52.6512C432.071 53.549 431.391 54.3113 430.55 54.86C428.652 56.0015 426.464 56.571 424.25 56.5C423.8 56.5 423.47 56.5 423.25 56.5C423.25 58.32 423.303 60.71 423.41 63.67H419.35C419.47 60.89 419.54 57.61 419.54 53.83C419.54 50.36 419.47 47.37 419.35 44.83H421.86C422.22 44.83 422.86 44.83 423.91 44.83C424.96 44.83 425.8 44.78 426.55 44.78C428.193 44.7139 429.819 45.1386 431.22 46C431.839 46.406 432.341 46.9685 432.672 47.6306C433.004 48.2927 433.155 49.0308 433.11 49.77M429.38 50.57C429.38 48.4967 428.01 47.4634 425.27 47.47C424.545 47.4729 423.821 47.5466 423.11 47.69C423.21 49.51 423.27 51.57 423.27 53.88C423.51 53.88 423.79 53.88 424.1 53.88C427.62 53.88 429.38 52.76 429.38 50.54" fill="#FCFCFD"/>
<path d="M461.46 53.89C461.55 56.6015 460.573 59.2402 458.74 61.24C457.893 62.1835 456.853 62.9329 455.689 63.4369C454.526 63.9409 453.268 64.1876 452 64.16C450.806 64.189 449.62 63.9653 448.518 63.5034C447.417 63.0415 446.426 62.352 445.61 61.48C444.751 60.5725 444.081 59.5028 443.64 58.3336C443.199 57.1644 442.995 55.9189 443.04 54.67C442.945 51.9565 443.918 49.314 445.75 47.31C446.597 46.3694 447.636 45.6218 448.797 45.118C449.959 44.6142 451.215 44.366 452.48 44.39C453.673 44.3635 454.858 44.5875 455.958 45.0474C457.059 45.5073 458.051 46.1929 458.87 47.06C459.728 47.9723 460.397 49.0455 460.839 50.2178C461.28 51.3902 461.484 52.6383 461.44 53.89M457.44 54.3C457.517 52.535 456.968 50.7995 455.89 49.4C455.444 48.813 454.868 48.3376 454.206 48.0114C453.545 47.6851 452.817 47.5169 452.08 47.52C451.373 47.525 450.678 47.7003 450.053 48.031C449.428 48.3617 448.892 48.8382 448.49 49.42C447.471 50.8039 446.953 52.4929 447.02 54.21C446.94 55.9724 447.489 57.7057 448.57 59.1C449.019 59.6931 449.599 60.1735 450.266 60.5033C450.932 60.8331 451.666 61.0032 452.41 61C453.116 60.9952 453.81 60.8198 454.433 60.489C455.056 60.1582 455.59 59.6817 455.99 59.1C457.014 57.722 457.536 56.0355 457.47 54.32" fill="#FCFCFD"/>
<path d="M481.05 63.64H477.48C477.48 63.2467 476.147 61.1601 473.48 57.3801C470.7 53.3801 469.12 50.6601 468.74 49.2201H468.5C468.73 51.1183 468.853 53.028 468.87 54.94C468.87 57.32 468.93 60.22 469.07 63.64H465.51C465.657 60.66 465.73 57.38 465.73 53.8C465.73 50.22 465.657 47.22 465.51 44.8H469.8C469.8 45.31 471 47.35 473.38 50.92C475.907 54.7 477.36 57.2667 477.74 58.62H478C477.782 56.7009 477.665 54.7715 477.65 52.84C477.65 50.23 477.59 47.55 477.45 44.84H481.06C480.93 47.23 480.86 50.23 480.86 53.84C480.86 57.45 480.93 60.74 481.06 63.68" fill="#FCFCFD"/>
</g>
<defs>
<linearGradient id="paint0_linear_5_14" x1="128.825" y1="41.7824" x2="128.825" y2="194.262" gradientUnits="userSpaceOnUse">
<stop stop-color="#2079B0"/>
<stop offset="0.32" stop-color="#4A98B5"/>
<stop offset="0.78" stop-color="#81BFBC"/>
<stop offset="1" stop-color="#97CFBF"/>
</linearGradient>
<linearGradient id="paint1_linear_5_14" x1="87.2933" y1="84.9906" x2="184.833" y2="84.9906" gradientUnits="userSpaceOnUse">
<stop stop-color="#5ABCAB"/>
<stop offset="1" stop-color="#E6E99A"/>
</linearGradient>
<linearGradient id="paint2_linear_5_14" x1="127.372" y1="121" x2="127.372" y2="197.79" gradientUnits="userSpaceOnUse">
<stop stop-color="#E53432"/>
<stop offset="0.18" stop-color="#D43745"/>
<stop offset="0.73" stop-color="#A33E7C"/>
<stop offset="1" stop-color="#904192"/>
</linearGradient>
<linearGradient id="paint3_linear_5_14" x1="205.003" y1="93.7376" x2="205.003" y2="134.698" gradientUnits="userSpaceOnUse">
<stop stop-color="#F18779"/>
<stop offset="0.64" stop-color="#F9B574"/>
<stop offset="1" stop-color="#FDCB72"/>
</linearGradient>
<clipPath id="clip0_5_14">
<rect width="788.07" height="225.17" fill="white"/>
</clipPath>
</defs>
</svg>
