<svg width="248" height="24" viewBox="0 0 248 24" fill="none" xmlns="http://www.w3.org/2000/svg">
    <path d="M9.005 16.545C9.005 15.7501 9.32075 14.9878 9.8828 14.4258C10.4448 13.8638 11.2071 13.548 12.002 13.548C12.3957 13.5479 12.7855 13.6253 13.1492 13.7758C13.5129 13.9264 13.8434 14.1471 14.1218 14.4254C14.4002 14.7038 14.6211 15.0342 14.7718 15.3979C14.9224 15.7615 15 16.1513 15 16.545V22H22V11.543L12 2L2 11.543V22H9.005V16.545Z" stroke="#262626" stroke-width="2" stroke-linejoin="round"/>
    <path d="M75 10.5C75 12.1811 74.5015 13.8245 73.5675 15.2223C72.6335 16.6202 71.306 17.7096 69.7528 18.353C68.1996 18.9963 66.4906 19.1647 64.8417 18.8367C63.1929 18.5087 61.6783 17.6992 60.4896 16.5104C59.3009 15.3217 58.4913 13.8071 58.1633 12.1583C57.8354 10.5094 58.0037 8.80036 58.647 7.24719C59.2904 5.69402 60.3798 4.3665 61.7777 3.43251C63.1755 2.49852 64.8189 2 66.5 2C68.7543 2 70.9164 2.89553 72.5104 4.48959C74.1045 6.08365 75 8.24566 75 10.5Z" stroke="#262626" stroke-width="2" stroke-linecap="round" stroke-linejoin="round"/>
    <path d="M72.511 16.511L78 22" stroke="#262626" stroke-width="2" stroke-linecap="round" stroke-linejoin="round"/>
    <path d="M125.941 13.953L119.581 16.424L122.06 10.056L128.42 7.585L125.941 13.953Z" stroke="#262626" stroke-width="2" stroke-linecap="round" stroke-linejoin="round"/>
    <path fill-rule="evenodd" clip-rule="evenodd" d="M122.06 10.056L125.949 13.945L119.581 16.424L122.06 10.056Z" fill="#262626"/>
    <path d="M124.001 22.505C129.8 22.505 134.501 17.804 134.501 12.005C134.501 6.20602 129.8 1.505 124.001 1.505C118.202 1.505 113.501 6.20602 113.501 12.005C113.501 17.804 118.202 22.505 124.001 22.505Z" stroke="#262626" stroke-width="2" stroke-linecap="round" stroke-linejoin="round"/>
    <path d="M170.049 7.002H189.95" stroke="#262626" stroke-width="2" stroke-linejoin="round"/>
    <path d="M181.504 2.00101L184.362 7.00201" stroke="#262626" stroke-width="2" stroke-linecap="round" stroke-linejoin="round"/>
    <path d="M175.207 2.11L178.002 7.002" stroke="#262626" stroke-width="2" stroke-linecap="round" stroke-linejoin="round"/>
    <path d="M170 12.001V15.45C170 18.299 170.698 19.456 171.606 20.395C172.546 21.303 173.704 22.002 176.552 22.002H183.448C186.296 22.002 187.454 21.303 188.394 20.395C189.302 19.456 190 18.299 190 15.45V8.552C190 5.704 189.302 4.546 188.394 3.607C187.454 2.699 186.296 2 183.448 2H176.552C173.704 2 172.546 2.699 171.606 3.607C170.698 4.546 170 5.704 170 8.552V12.001Z" stroke="#262626" stroke-width="2" stroke-linecap="round" stroke-linejoin="round"/>
    <path fill-rule="evenodd" clip-rule="evenodd" d="M177.763 17.664C177.625 17.5842 177.51 17.4695 177.43 17.3314C177.351 17.1932 177.309 17.0365 177.309 16.877V11.63C177.309 11.4703 177.351 11.3134 177.43 11.175C177.51 11.0366 177.625 10.9217 177.763 10.8418C177.902 10.7619 178.058 10.7199 178.218 10.7199C178.378 10.72 178.535 10.7621 178.673 10.842L183.218 13.466C183.356 13.5457 183.471 13.6605 183.551 13.7988C183.631 13.937 183.673 14.0938 183.673 14.2535C183.673 14.4132 183.631 14.57 183.551 14.7082C183.471 14.8465 183.356 14.9613 183.218 15.041L178.673 17.665C178.535 17.7449 178.378 17.7869 178.218 17.7869C178.058 17.7869 177.901 17.7449 177.763 17.665V17.664Z" fill="#262626"/>
    <g clip-path="url(#clip0_1_109)">
    <path d="M236.003 2.001C237.303 1.95925 238.598 2.17926 239.812 2.64794C241.025 3.11662 242.132 3.82442 243.066 4.72927C244 5.63412 244.743 6.71757 245.251 7.91522C245.758 9.11288 246.019 10.4003 246.019 11.701C246.019 13.0017 245.758 14.2891 245.251 15.4868C244.743 16.6844 244 17.7679 243.066 18.6727C242.132 19.5776 241.025 20.2854 239.812 20.7541C238.598 21.2227 237.303 21.4427 236.003 21.401C235.025 21.4037 234.051 21.2746 233.108 21.017C232.931 20.9687 232.743 20.9828 232.575 21.057L230.591 21.933C230.471 21.9857 230.34 22.0083 230.209 21.9985C230.079 21.9888 229.952 21.9472 229.841 21.8773C229.731 21.8074 229.639 21.7114 229.573 21.5977C229.508 21.484 229.472 21.356 229.468 21.225L229.414 19.445C229.409 19.3369 229.383 19.2308 229.337 19.133C229.29 19.0353 229.225 18.9479 229.144 18.876C228.14 17.9724 227.341 16.8649 226.799 15.6275C226.258 14.3902 225.987 13.0515 226.004 11.701C225.996 10.3995 226.252 9.11 226.756 7.90994C227.26 6.70989 228.001 5.62412 228.935 4.71795C229.869 3.81179 230.977 3.10396 232.192 2.63704C233.407 2.17013 234.702 1.95377 236.003 2.001Z" stroke="#262626" stroke-width="1.739" stroke-miterlimit="10"/>
    <path fill-rule="evenodd" clip-rule="evenodd" d="M241.79 10.132C241.874 10.0009 241.908 9.84442 241.887 9.69032C241.867 9.53622 241.792 9.39439 241.677 9.28991C241.562 9.18542 241.414 9.12501 241.258 9.11936C241.103 9.1137 240.95 9.16316 240.828 9.259L238.272 11.309C238.163 11.3915 238.03 11.4364 237.893 11.4368C237.757 11.4371 237.623 11.393 237.514 11.311L235.06 9.47C234.886 9.33965 234.687 9.24676 234.475 9.19715C234.263 9.14754 234.043 9.14229 233.83 9.18175C233.616 9.2212 233.412 9.30449 233.232 9.42638C233.052 9.54827 232.899 9.70612 232.783 9.89L230.216 13.87C230.132 14.001 230.097 14.1577 230.117 14.3121C230.137 14.4666 230.211 14.6089 230.327 14.7138C230.442 14.8187 230.59 14.8794 230.746 14.8851C230.902 14.8908 231.054 14.8412 231.177 14.745L233.733 12.696C233.842 12.6132 233.975 12.5682 234.112 12.5679C234.249 12.5675 234.382 12.6118 234.492 12.694L236.944 14.534C237.118 14.6645 237.317 14.7575 237.529 14.8072C237.741 14.8569 237.961 14.8622 238.175 14.8228C238.389 14.7833 238.592 14.7 238.773 14.578C238.953 14.456 239.106 14.298 239.222 14.114L241.79 10.132Z" fill="#262626"/>
    </g>
    <defs>
    <clipPath id="clip0_1_109">
    <rect width="24" height="24" fill="white" transform="translate(224)"/>
    </clipPath>
    </defs>
    </svg>
    