<svg width="176" height="10" viewBox="0 0 176 10" fill="none" xmlns="http://www.w3.org/2000/svg">
<path d="M6.04102 7.98633V9H0.363281C0.355469 8.74609 0.396484 8.50195 0.486328 8.26758C0.630859 7.88086 0.861328 7.5 1.17773 7.125C1.49805 6.75 1.95898 6.31641 2.56055 5.82422C3.49414 5.05859 4.125 4.45312 4.45312 4.00781C4.78125 3.55859 4.94531 3.13477 4.94531 2.73633C4.94531 2.31836 4.79492 1.9668 4.49414 1.68164C4.19727 1.39258 3.80859 1.24805 3.32812 1.24805C2.82031 1.24805 2.41406 1.40039 2.10938 1.70508C1.80469 2.00977 1.65039 2.43164 1.64648 2.9707L0.5625 2.85938C0.636719 2.05078 0.916016 1.43555 1.40039 1.01367C1.88477 0.587891 2.53516 0.375 3.35156 0.375C4.17578 0.375 4.82812 0.603516 5.30859 1.06055C5.78906 1.51758 6.0293 2.08398 6.0293 2.75977C6.0293 3.10352 5.95898 3.44141 5.81836 3.77344C5.67773 4.10547 5.44336 4.45508 5.11523 4.82227C4.79102 5.18945 4.25 5.69336 3.49219 6.33398C2.85938 6.86523 2.45312 7.22656 2.27344 7.41797C2.09375 7.60547 1.94531 7.79492 1.82812 7.98633H6.04102ZM7.17773 4.76367C7.17773 3.74805 7.28125 2.93164 7.48828 2.31445C7.69922 1.69336 8.00977 1.21484 8.41992 0.878906C8.83398 0.542969 9.35352 0.375 9.97852 0.375C10.4395 0.375 10.8438 0.46875 11.1914 0.65625C11.5391 0.839844 11.8262 1.10742 12.0527 1.45898C12.2793 1.80664 12.457 2.23242 12.5859 2.73633C12.7148 3.23633 12.7793 3.91211 12.7793 4.76367C12.7793 5.77148 12.6758 6.58594 12.4688 7.20703C12.2617 7.82422 11.9512 8.30273 11.5371 8.64258C11.127 8.97852 10.6074 9.14648 9.97852 9.14648C9.15039 9.14648 8.5 8.84961 8.02734 8.25586C7.46094 7.54102 7.17773 6.37695 7.17773 4.76367ZM8.26172 4.76367C8.26172 6.17383 8.42578 7.11328 8.75391 7.58203C9.08594 8.04688 9.49414 8.2793 9.97852 8.2793C10.4629 8.2793 10.8691 8.04492 11.1973 7.57617C11.5293 7.10742 11.6953 6.16992 11.6953 4.76367C11.6953 3.34961 11.5293 2.41016 11.1973 1.94531C10.8691 1.48047 10.459 1.24805 9.9668 1.24805C9.48242 1.24805 9.0957 1.45312 8.80664 1.86328C8.44336 2.38672 8.26172 3.35352 8.26172 4.76367ZM19.4004 7.98633V9H13.7227C13.7148 8.74609 13.7559 8.50195 13.8457 8.26758C13.9902 7.88086 14.2207 7.5 14.5371 7.125C14.8574 6.75 15.3184 6.31641 15.9199 5.82422C16.8535 5.05859 17.4844 4.45312 17.8125 4.00781C18.1406 3.55859 18.3047 3.13477 18.3047 2.73633C18.3047 2.31836 18.1543 1.9668 17.8535 1.68164C17.5566 1.39258 17.168 1.24805 16.6875 1.24805C16.1797 1.24805 15.7734 1.40039 15.4688 1.70508C15.1641 2.00977 15.0098 2.43164 15.0059 2.9707L13.9219 2.85938C13.9961 2.05078 14.2754 1.43555 14.7598 1.01367C15.2441 0.587891 15.8945 0.375 16.7109 0.375C17.5352 0.375 18.1875 0.603516 18.668 1.06055C19.1484 1.51758 19.3887 2.08398 19.3887 2.75977C19.3887 3.10352 19.3184 3.44141 19.1777 3.77344C19.0371 4.10547 18.8027 4.45508 18.4746 4.82227C18.1504 5.18945 17.6094 5.69336 16.8516 6.33398C16.2188 6.86523 15.8125 7.22656 15.6328 7.41797C15.4531 7.60547 15.3047 7.79492 15.1875 7.98633H19.4004ZM20.543 6.73242L21.5977 6.5918C21.7188 7.18945 21.9238 7.62109 22.2129 7.88672C22.5059 8.14844 22.8613 8.2793 23.2793 8.2793C23.7754 8.2793 24.1934 8.10742 24.5332 7.76367C24.877 7.41992 25.0488 6.99414 25.0488 6.48633C25.0488 6.00195 24.8906 5.60352 24.5742 5.29102C24.2578 4.97461 23.8555 4.81641 23.3672 4.81641C23.168 4.81641 22.9199 4.85547 22.623 4.93359L22.7402 4.00781C22.8105 4.01562 22.8672 4.01953 22.9102 4.01953C23.3594 4.01953 23.7637 3.90234 24.123 3.66797C24.4824 3.43359 24.6621 3.07227 24.6621 2.58398C24.6621 2.19727 24.5312 1.87695 24.2695 1.62305C24.0078 1.36914 23.6699 1.24219 23.2559 1.24219C22.8457 1.24219 22.5039 1.37109 22.2305 1.62891C21.957 1.88672 21.7812 2.27344 21.7031 2.78906L20.6484 2.60156C20.7773 1.89453 21.0703 1.34766 21.5273 0.960938C21.9844 0.570312 22.5527 0.375 23.2324 0.375C23.7012 0.375 24.1328 0.476562 24.5273 0.679688C24.9219 0.878906 25.2227 1.15234 25.4297 1.5C25.6406 1.84766 25.7461 2.2168 25.7461 2.60742C25.7461 2.97852 25.6465 3.31641 25.4473 3.62109C25.248 3.92578 24.9531 4.16797 24.5625 4.34766C25.0703 4.46484 25.4648 4.70898 25.7461 5.08008C26.0273 5.44727 26.168 5.9082 26.168 6.46289C26.168 7.21289 25.8945 7.84961 25.3477 8.37305C24.8008 8.89258 24.1094 9.15234 23.2734 9.15234C22.5195 9.15234 21.8926 8.92773 21.3926 8.47852C20.8965 8.0293 20.6133 7.44727 20.543 6.73242ZM31.1777 9V0.410156H32.3145V9H31.1777ZM34.3125 9V0.410156H35.4785L39.9902 7.1543V0.410156H41.0801V9H39.9141L35.4023 2.25V9H34.3125ZM42.6094 6.24023L43.6816 6.14648C43.7324 6.57617 43.8496 6.92969 44.0332 7.20703C44.2207 7.48047 44.5098 7.70312 44.9004 7.875C45.291 8.04297 45.7305 8.12695 46.2188 8.12695C46.6523 8.12695 47.0352 8.0625 47.3672 7.93359C47.6992 7.80469 47.9453 7.62891 48.1055 7.40625C48.2695 7.17969 48.3516 6.93359 48.3516 6.66797C48.3516 6.39844 48.2734 6.16406 48.1172 5.96484C47.9609 5.76172 47.7031 5.5918 47.3438 5.45508C47.1133 5.36523 46.6035 5.22656 45.8145 5.03906C45.0254 4.84766 44.4727 4.66797 44.1562 4.5C43.7461 4.28516 43.4395 4.01953 43.2363 3.70312C43.0371 3.38281 42.9375 3.02539 42.9375 2.63086C42.9375 2.19727 43.0605 1.79297 43.3066 1.41797C43.5527 1.03906 43.9121 0.751953 44.3848 0.556641C44.8574 0.361328 45.3828 0.263672 45.9609 0.263672C46.5977 0.263672 47.1582 0.367188 47.6426 0.574219C48.1309 0.777344 48.5059 1.07812 48.7676 1.47656C49.0293 1.875 49.1699 2.32617 49.1895 2.83008L48.0996 2.91211C48.041 2.36914 47.8418 1.95898 47.502 1.68164C47.166 1.4043 46.668 1.26562 46.0078 1.26562C45.3203 1.26562 44.8184 1.39258 44.502 1.64648C44.1895 1.89648 44.0332 2.19922 44.0332 2.55469C44.0332 2.86328 44.1445 3.11719 44.3672 3.31641C44.5859 3.51562 45.1562 3.7207 46.0781 3.93164C47.0039 4.13867 47.6387 4.32031 47.9824 4.47656C48.4824 4.70703 48.8516 5 49.0898 5.35547C49.3281 5.70703 49.4473 6.11328 49.4473 6.57422C49.4473 7.03125 49.3164 7.46289 49.0547 7.86914C48.793 8.27148 48.416 8.58594 47.9238 8.8125C47.4355 9.03516 46.8848 9.14648 46.2715 9.14648C45.4941 9.14648 44.8418 9.0332 44.3145 8.80664C43.791 8.58008 43.3789 8.24023 43.0781 7.78711C42.7812 7.33008 42.625 6.81445 42.6094 6.24023ZM53.1855 9V1.42383H50.3555V0.410156H57.1641V1.42383H54.3223V9H53.1855ZM56.502 9L59.8008 0.410156H61.0254L64.541 9H63.2461L62.2441 6.39844H58.6523L57.709 9H56.502ZM58.9805 5.47266H61.8926L60.9961 3.09375C60.7227 2.37109 60.5195 1.77734 60.3867 1.3125C60.2773 1.86328 60.123 2.41016 59.9238 2.95312L58.9805 5.47266ZM69.4688 5.63086V4.62305L73.1074 4.61719V7.80469C72.5488 8.25 71.9727 8.58594 71.3789 8.8125C70.7852 9.03516 70.1758 9.14648 69.5508 9.14648C68.707 9.14648 67.9395 8.9668 67.248 8.60742C66.5605 8.24414 66.041 7.7207 65.6895 7.03711C65.3379 6.35352 65.1621 5.58984 65.1621 4.74609C65.1621 3.91016 65.3359 3.13086 65.6836 2.4082C66.0352 1.68164 66.5391 1.14258 67.1953 0.791016C67.8516 0.439453 68.6074 0.263672 69.4629 0.263672C70.084 0.263672 70.6445 0.365234 71.1445 0.568359C71.6484 0.767578 72.043 1.04688 72.3281 1.40625C72.6133 1.76562 72.8301 2.23438 72.9785 2.8125L71.9531 3.09375C71.8242 2.65625 71.6641 2.3125 71.4727 2.0625C71.2812 1.8125 71.0078 1.61328 70.6523 1.46484C70.2969 1.3125 69.9023 1.23633 69.4688 1.23633C68.9492 1.23633 68.5 1.31641 68.1211 1.47656C67.7422 1.63281 67.4355 1.83984 67.2012 2.09766C66.9707 2.35547 66.791 2.63867 66.6621 2.94727C66.4434 3.47852 66.334 4.05469 66.334 4.67578C66.334 5.44141 66.4648 6.08203 66.7266 6.59766C66.9922 7.11328 67.377 7.49609 67.8809 7.74609C68.3848 7.99609 68.9199 8.12109 69.4863 8.12109C69.9785 8.12109 70.459 8.02734 70.9277 7.83984C71.3965 7.64844 71.752 7.44531 71.9941 7.23047V5.63086H69.4688ZM74.8066 9V0.410156H78.6152C79.3809 0.410156 79.9629 0.488281 80.3613 0.644531C80.7598 0.796875 81.0781 1.06836 81.3164 1.45898C81.5547 1.84961 81.6738 2.28125 81.6738 2.75391C81.6738 3.36328 81.4766 3.87695 81.082 4.29492C80.6875 4.71289 80.0781 4.97852 79.2539 5.0918C79.5547 5.23633 79.7832 5.37891 79.9395 5.51953C80.2715 5.82422 80.5859 6.20508 80.8828 6.66211L82.377 9H80.9473L79.8105 7.21289C79.4785 6.69727 79.2051 6.30273 78.9902 6.0293C78.7754 5.75586 78.582 5.56445 78.4102 5.45508C78.2422 5.3457 78.0703 5.26953 77.8945 5.22656C77.7656 5.19922 77.5547 5.18555 77.2617 5.18555H75.9434V9H74.8066ZM75.9434 4.20117H78.3867C78.9062 4.20117 79.3125 4.14844 79.6055 4.04297C79.8984 3.93359 80.1211 3.76172 80.2734 3.52734C80.4258 3.28906 80.502 3.03125 80.502 2.75391C80.502 2.34766 80.3535 2.01367 80.0566 1.75195C79.7637 1.49023 79.2988 1.35938 78.6621 1.35938H75.9434V4.20117ZM82.5176 9L85.8164 0.410156H87.041L90.5566 9H89.2617L88.2598 6.39844H84.668L83.7246 9H82.5176ZM84.9961 5.47266H87.9082L87.0117 3.09375C86.7383 2.37109 86.5352 1.77734 86.4023 1.3125C86.293 1.86328 86.1387 2.41016 85.9395 2.95312L84.9961 5.47266ZM91.4297 9V0.410156H93.1406L95.1738 6.49219C95.3613 7.05859 95.498 7.48242 95.584 7.76367C95.6816 7.45117 95.834 6.99219 96.041 6.38672L98.0977 0.410156H99.627V9H98.5312V1.81055L96.0352 9H95.0098L92.5254 1.6875V9H91.4297ZM104.859 9V0.410156H110.654V1.42383H105.996V4.08398H110.027V5.09766H105.996V9H104.859ZM112.154 9V0.410156H115.963C116.729 0.410156 117.311 0.488281 117.709 0.644531C118.107 0.796875 118.426 1.06836 118.664 1.45898C118.902 1.84961 119.021 2.28125 119.021 2.75391C119.021 3.36328 118.824 3.87695 118.43 4.29492C118.035 4.71289 117.426 4.97852 116.602 5.0918C116.902 5.23633 117.131 5.37891 117.287 5.51953C117.619 5.82422 117.934 6.20508 118.23 6.66211L119.725 9H118.295L117.158 7.21289C116.826 6.69727 116.553 6.30273 116.338 6.0293C116.123 5.75586 115.93 5.56445 115.758 5.45508C115.59 5.3457 115.418 5.26953 115.242 5.22656C115.113 5.19922 114.902 5.18555 114.609 5.18555H113.291V9H112.154ZM113.291 4.20117H115.734C116.254 4.20117 116.66 4.14844 116.953 4.04297C117.246 3.93359 117.469 3.76172 117.621 3.52734C117.773 3.28906 117.85 3.03125 117.85 2.75391C117.85 2.34766 117.701 2.01367 117.404 1.75195C117.111 1.49023 116.646 1.35938 116.01 1.35938H113.291V4.20117ZM120.463 4.81641C120.463 3.39062 120.846 2.27539 121.611 1.4707C122.377 0.662109 123.365 0.257812 124.576 0.257812C125.369 0.257812 126.084 0.447266 126.721 0.826172C127.357 1.20508 127.842 1.73438 128.174 2.41406C128.51 3.08984 128.678 3.85742 128.678 4.7168C128.678 5.58789 128.502 6.36719 128.15 7.05469C127.799 7.74219 127.301 8.26367 126.656 8.61914C126.012 8.9707 125.316 9.14648 124.57 9.14648C123.762 9.14648 123.039 8.95117 122.402 8.56055C121.766 8.16992 121.283 7.63672 120.955 6.96094C120.627 6.28516 120.463 5.57031 120.463 4.81641ZM121.635 4.83398C121.635 5.86914 121.912 6.68555 122.467 7.2832C123.025 7.87695 123.725 8.17383 124.564 8.17383C125.42 8.17383 126.123 7.87305 126.674 7.27148C127.229 6.66992 127.506 5.81641 127.506 4.71094C127.506 4.01172 127.387 3.40234 127.148 2.88281C126.914 2.35938 126.568 1.95508 126.111 1.66992C125.658 1.38086 125.148 1.23633 124.582 1.23633C123.777 1.23633 123.084 1.51367 122.502 2.06836C121.924 2.61914 121.635 3.54102 121.635 4.83398ZM130.113 9V0.410156H131.824L133.857 6.49219C134.045 7.05859 134.182 7.48242 134.268 7.76367C134.365 7.45117 134.518 6.99219 134.725 6.38672L136.781 0.410156H138.311V9H137.215V1.81055L134.719 9H133.693L131.209 1.6875V9H130.113ZM143.449 9V0.410156H145.16L147.193 6.49219C147.381 7.05859 147.518 7.48242 147.604 7.76367C147.701 7.45117 147.854 6.99219 148.061 6.38672L150.117 0.410156H151.646V9H150.551V1.81055L148.055 9H147.029L144.545 1.6875V9H143.449ZM153.504 9V0.410156H159.715V1.42383H154.641V4.05469H159.393V5.0625H154.641V7.98633H159.914V9H153.504ZM163.67 9V1.42383H160.84V0.410156H167.648V1.42383H164.807V9H163.67ZM166.986 9L170.285 0.410156H171.51L175.025 9H173.73L172.729 6.39844H169.137L168.193 9H166.986ZM169.465 5.47266H172.377L171.48 3.09375C171.207 2.37109 171.004 1.77734 170.871 1.3125C170.762 1.86328 170.607 2.41016 170.408 2.95312L169.465 5.47266Z" fill="#959595"/>
</svg>
