<svg width="38" height="10" viewBox="0 0 38 10" fill="none" xmlns="http://www.w3.org/2000/svg">
<path d="M5.82955 2.45455C5.77841 2.02273 5.57102 1.6875 5.20739 1.44886C4.84375 1.21023 4.39773 1.09091 3.86932 1.09091C3.48295 1.09091 3.14489 1.15341 2.85511 1.27841C2.56818 1.40341 2.34375 1.57528 2.18182 1.79403C2.02273 2.01278 1.94318 2.26136 1.94318 2.53977C1.94318 2.77273 1.99858 2.97301 2.10938 3.14062C2.22301 3.3054 2.3679 3.44318 2.54403 3.55398C2.72017 3.66193 2.90483 3.75142 3.09801 3.82244C3.29119 3.89062 3.46875 3.94602 3.63068 3.98864L4.51705 4.22727C4.74432 4.28693 4.99716 4.36932 5.27557 4.47443C5.55682 4.57955 5.82528 4.72301 6.08097 4.90483C6.33949 5.08381 6.55256 5.31392 6.72017 5.59517C6.88778 5.87642 6.97159 6.22159 6.97159 6.63068C6.97159 7.10227 6.84801 7.52841 6.60085 7.90909C6.35653 8.28977 5.99858 8.59233 5.52699 8.81676C5.05824 9.04119 4.48864 9.15341 3.81818 9.15341C3.19318 9.15341 2.65199 9.05256 2.1946 8.85085C1.74006 8.64915 1.3821 8.3679 1.12074 8.0071C0.862216 7.64631 0.715909 7.22727 0.681818 6.75H1.77273C1.80114 7.07955 1.91193 7.35227 2.10511 7.56818C2.30114 7.78125 2.5483 7.94034 2.84659 8.04545C3.14773 8.14773 3.47159 8.19886 3.81818 8.19886C4.22159 8.19886 4.58381 8.13352 4.90483 8.00284C5.22585 7.86932 5.48011 7.68466 5.66761 7.44886C5.85511 7.21023 5.94886 6.93182 5.94886 6.61364C5.94886 6.32386 5.8679 6.08807 5.70597 5.90625C5.54403 5.72443 5.33097 5.5767 5.06676 5.46307C4.80256 5.34943 4.51705 5.25 4.21023 5.16477L3.13636 4.85795C2.45455 4.66193 1.91477 4.3821 1.51705 4.01847C1.11932 3.65483 0.920455 3.17898 0.920455 2.59091C0.920455 2.10227 1.05256 1.67614 1.31676 1.3125C1.58381 0.946023 1.94176 0.661932 2.39062 0.460227C2.84233 0.255682 3.34659 0.153409 3.90341 0.153409C4.46591 0.153409 4.96591 0.254261 5.40341 0.455966C5.84091 0.654829 6.1875 0.927556 6.44318 1.27415C6.7017 1.62074 6.83807 2.0142 6.85227 2.45455H5.82955ZM11.3171 9.13636C10.6864 9.13636 10.1424 8.99716 9.68501 8.71875C9.23047 8.4375 8.87962 8.04545 8.63246 7.54261C8.38814 7.03693 8.26598 6.44886 8.26598 5.77841C8.26598 5.10795 8.38814 4.51705 8.63246 4.00568C8.87962 3.49148 9.22337 3.09091 9.66371 2.80398C10.1069 2.5142 10.6239 2.36932 11.2148 2.36932C11.5558 2.36932 11.8924 2.42614 12.2248 2.53977C12.5572 2.65341 12.8597 2.83807 13.1325 3.09375C13.4052 3.34659 13.6225 3.68182 13.7844 4.09943C13.9464 4.51705 14.0273 5.03125 14.0273 5.64205V6.06818H8.98189V5.19886H13.0046C13.0046 4.82955 12.9308 4.5 12.783 4.21023C12.6381 3.92045 12.4308 3.69176 12.1609 3.52415C11.8938 3.35653 11.5785 3.27273 11.2148 3.27273C10.8143 3.27273 10.4677 3.37216 10.1751 3.57102C9.8853 3.76705 9.66229 4.02273 9.50604 4.33807C9.34979 4.65341 9.27166 4.99148 9.27166 5.35227V5.93182C9.27166 6.42614 9.35689 6.84517 9.52734 7.18892C9.70064 7.52983 9.9407 7.78977 10.2475 7.96875C10.5543 8.14489 10.9109 8.23295 11.3171 8.23295C11.5813 8.23295 11.82 8.19602 12.033 8.12216C12.2489 8.04545 12.435 7.93182 12.5913 7.78125C12.7475 7.62784 12.8683 7.4375 12.9535 7.21023L13.9251 7.48295C13.8228 7.8125 13.6509 8.10227 13.4094 8.35227C13.168 8.59943 12.8697 8.79261 12.5146 8.93182C12.1594 9.06818 11.7603 9.13636 11.3171 9.13636ZM18.3015 9.13636C17.6708 9.13636 17.1268 8.99716 16.6694 8.71875C16.2148 8.4375 15.864 8.04545 15.6168 7.54261C15.3725 7.03693 15.2504 6.44886 15.2504 5.77841C15.2504 5.10795 15.3725 4.51705 15.6168 4.00568C15.864 3.49148 16.2077 3.09091 16.6481 2.80398C17.0913 2.5142 17.6083 2.36932 18.1992 2.36932C18.5401 2.36932 18.8768 2.42614 19.2092 2.53977C19.5415 2.65341 19.8441 2.83807 20.1168 3.09375C20.3896 3.34659 20.6069 3.68182 20.7688 4.09943C20.9308 4.51705 21.0117 5.03125 21.0117 5.64205V6.06818H15.9663V5.19886H19.989C19.989 4.82955 19.9151 4.5 19.7674 4.21023C19.6225 3.92045 19.4151 3.69176 19.1452 3.52415C18.8782 3.35653 18.5629 3.27273 18.1992 3.27273C17.7987 3.27273 17.4521 3.37216 17.1594 3.57102C16.8697 3.76705 16.6467 4.02273 16.4904 4.33807C16.3342 4.65341 16.256 4.99148 16.256 5.35227V5.93182C16.256 6.42614 16.3413 6.84517 16.5117 7.18892C16.685 7.52983 16.9251 7.78977 17.2319 7.96875C17.5387 8.14489 17.8952 8.23295 18.3015 8.23295C18.5657 8.23295 18.8043 8.19602 19.0174 8.12216C19.2333 8.04545 19.4194 7.93182 19.5756 7.78125C19.7319 7.62784 19.8526 7.4375 19.9379 7.21023L20.9094 7.48295C20.8072 7.8125 20.6353 8.10227 20.3938 8.35227C20.1523 8.59943 19.854 8.79261 19.4989 8.93182C19.1438 9.06818 18.7447 9.13636 18.3015 9.13636ZM26.4109 9H25.3029L28.5075 0.272727H29.5984L32.8029 9H31.695L29.087 1.65341H29.0188L26.4109 9ZM26.82 5.59091H31.2859V6.52841H26.82V5.59091ZM35.0316 0.272727V9H34.0259V0.272727H35.0316ZM37.8793 0.272727V9H36.8736V0.272727H37.8793Z" fill="black"/>
</svg>
