<svg width="208" height="27" viewBox="0 0 208 27" fill="none" xmlns="http://www.w3.org/2000/svg">
<path d="M5.27 19.119C4.44267 19.119 3.69467 18.9773 3.026 18.694C2.36867 18.4107 1.84733 18.0027 1.462 17.47C1.07667 16.9373 0.878333 16.3083 0.867 15.583H3.417C3.451 16.0703 3.621 16.4557 3.927 16.739C4.24433 17.0223 4.675 17.164 5.219 17.164C5.77433 17.164 6.21067 17.0337 6.528 16.773C6.84533 16.501 7.004 16.1497 7.004 15.719C7.004 15.3677 6.89633 15.0787 6.681 14.852C6.46567 14.6253 6.19367 14.4497 5.865 14.325C5.54767 14.189 5.10567 14.0417 4.539 13.883C3.76833 13.6563 3.13933 13.4353 2.652 13.22C2.176 12.9933 1.76233 12.659 1.411 12.217C1.071 11.7637 0.901 11.163 0.901 10.415C0.901 9.71233 1.07667 9.10033 1.428 8.579C1.77933 8.05767 2.27233 7.661 2.907 7.389C3.54167 7.10567 4.267 6.964 5.083 6.964C6.307 6.964 7.29867 7.26433 8.058 7.865C8.82867 8.45433 9.25367 9.28167 9.333 10.347H6.715C6.69233 9.939 6.51667 9.60467 6.188 9.344C5.87067 9.072 5.44567 8.936 4.913 8.936C4.44833 8.936 4.07433 9.055 3.791 9.293C3.519 9.531 3.383 9.87667 3.383 10.33C3.383 10.6473 3.485 10.9137 3.689 11.129C3.90433 11.333 4.165 11.503 4.471 11.639C4.78833 11.7637 5.23033 11.911 5.797 12.081C6.56767 12.3077 7.19667 12.5343 7.684 12.761C8.17133 12.9877 8.59067 13.3277 8.942 13.781C9.29333 14.2343 9.469 14.8293 9.469 15.566C9.469 16.2007 9.30467 16.79 8.976 17.334C8.64733 17.878 8.16567 18.3143 7.531 18.643C6.89633 18.9603 6.14267 19.119 5.27 19.119ZM20.4234 9.582V19H18.0264V17.81C17.7204 18.218 17.318 18.541 16.8194 18.779C16.332 19.0057 15.7994 19.119 15.2214 19.119C14.4847 19.119 13.833 18.966 13.2664 18.66C12.6997 18.3427 12.252 17.8837 11.9234 17.283C11.606 16.671 11.4474 15.9457 11.4474 15.107V9.582H13.8274V14.767C13.8274 15.515 14.0144 16.093 14.3884 16.501C14.7624 16.8977 15.2724 17.096 15.9184 17.096C16.5757 17.096 17.0914 16.8977 17.4654 16.501C17.8394 16.093 18.0264 15.515 18.0264 14.767V9.582H20.4234ZM26.4606 9.429C27.1633 9.429 27.781 9.57067 28.3136 9.854C28.8463 10.126 29.2656 10.483 29.5716 10.925V9.582H31.9686V19.068C31.9686 19.9407 31.793 20.717 31.4416 21.397C31.0903 22.0883 30.5633 22.6323 29.8606 23.029C29.158 23.437 28.308 23.641 27.3106 23.641C25.9733 23.641 24.874 23.3293 24.0126 22.706C23.1626 22.0827 22.681 21.2327 22.5676 20.156H24.9306C25.0553 20.5867 25.3216 20.9267 25.7296 21.176C26.149 21.4367 26.6533 21.567 27.2426 21.567C27.934 21.567 28.495 21.3573 28.9256 20.938C29.3563 20.53 29.5716 19.9067 29.5716 19.068V17.606C29.2656 18.048 28.8406 18.4163 28.2966 18.711C27.764 19.0057 27.152 19.153 26.4606 19.153C25.6673 19.153 24.942 18.949 24.2846 18.541C23.6273 18.133 23.106 17.5607 22.7206 16.824C22.3466 16.076 22.1596 15.2203 22.1596 14.257C22.1596 13.305 22.3466 12.4607 22.7206 11.724C23.106 10.9873 23.6216 10.4207 24.2676 10.024C24.925 9.62733 25.656 9.429 26.4606 9.429ZM29.5716 14.291C29.5716 13.713 29.4583 13.22 29.2316 12.812C29.005 12.3927 28.699 12.0753 28.3136 11.86C27.9283 11.6333 27.5146 11.52 27.0726 11.52C26.6306 11.52 26.2226 11.6277 25.8486 11.843C25.4746 12.0583 25.1686 12.3757 24.9306 12.795C24.704 13.203 24.5906 13.6903 24.5906 14.257C24.5906 14.8237 24.704 15.3223 24.9306 15.753C25.1686 16.1723 25.4746 16.4953 25.8486 16.722C26.234 16.9487 26.642 17.062 27.0726 17.062C27.5146 17.062 27.9283 16.9543 28.3136 16.739C28.699 16.5123 29.005 16.195 29.2316 15.787C29.4583 15.3677 29.5716 14.869 29.5716 14.291ZM37.9821 9.429C38.6848 9.429 39.3025 9.57067 39.8351 9.854C40.3678 10.126 40.7871 10.483 41.0931 10.925V9.582H43.4901V19.068C43.4901 19.9407 43.3145 20.717 42.9631 21.397C42.6118 22.0883 42.0848 22.6323 41.3821 23.029C40.6795 23.437 39.8295 23.641 38.8321 23.641C37.4948 23.641 36.3955 23.3293 35.5341 22.706C34.6841 22.0827 34.2025 21.2327 34.0891 20.156H36.4521C36.5768 20.5867 36.8431 20.9267 37.2511 21.176C37.6705 21.4367 38.1748 21.567 38.7641 21.567C39.4555 21.567 40.0165 21.3573 40.4471 20.938C40.8778 20.53 41.0931 19.9067 41.0931 19.068V17.606C40.7871 18.048 40.3621 18.4163 39.8181 18.711C39.2855 19.0057 38.6735 19.153 37.9821 19.153C37.1888 19.153 36.4635 18.949 35.8061 18.541C35.1488 18.133 34.6275 17.5607 34.2421 16.824C33.8681 16.076 33.6811 15.2203 33.6811 14.257C33.6811 13.305 33.8681 12.4607 34.2421 11.724C34.6275 10.9873 35.1431 10.4207 35.7891 10.024C36.4465 9.62733 37.1775 9.429 37.9821 9.429ZM41.0931 14.291C41.0931 13.713 40.9798 13.22 40.7531 12.812C40.5265 12.3927 40.2205 12.0753 39.8351 11.86C39.4498 11.6333 39.0361 11.52 38.5941 11.52C38.1521 11.52 37.7441 11.6277 37.3701 11.843C36.9961 12.0583 36.6901 12.3757 36.4521 12.795C36.2255 13.203 36.1121 13.6903 36.1121 14.257C36.1121 14.8237 36.2255 15.3223 36.4521 15.753C36.6901 16.1723 36.9961 16.4953 37.3701 16.722C37.7555 16.9487 38.1635 17.062 38.5941 17.062C39.0361 17.062 39.4498 16.9543 39.8351 16.739C40.2205 16.5123 40.5265 16.195 40.7531 15.787C40.9798 15.3677 41.0931 14.869 41.0931 14.291ZM54.5696 14.087C54.5696 14.427 54.5469 14.733 54.5016 15.005H47.6166C47.6733 15.685 47.9113 16.2177 48.3306 16.603C48.7499 16.9883 49.2656 17.181 49.8776 17.181C50.7616 17.181 51.3906 16.8013 51.7646 16.042H54.3316C54.0596 16.9487 53.5383 17.6967 52.7676 18.286C51.9969 18.864 51.0506 19.153 49.9286 19.153C49.0219 19.153 48.2059 18.9547 47.4806 18.558C46.7666 18.15 46.2056 17.5777 45.7976 16.841C45.4009 16.1043 45.2026 15.2543 45.2026 14.291C45.2026 13.3163 45.4009 12.4607 45.7976 11.724C46.1943 10.9873 46.7496 10.4207 47.4636 10.024C48.1776 9.62733 48.9993 9.429 49.9286 9.429C50.8239 9.429 51.6229 9.62167 52.3256 10.007C53.0396 10.3923 53.5893 10.942 53.9746 11.656C54.3713 12.3587 54.5696 13.169 54.5696 14.087ZM52.1046 13.407C52.0933 12.795 51.8723 12.3077 51.4416 11.945C51.0109 11.571 50.4839 11.384 49.8606 11.384C49.2713 11.384 48.7726 11.5653 48.3646 11.928C47.9679 12.2793 47.7243 12.7723 47.6336 13.407H52.1046ZM59.9108 19.153C59.1401 19.153 58.4488 19.017 57.8368 18.745C57.2248 18.4617 56.7375 18.082 56.3748 17.606C56.0235 17.13 55.8308 16.603 55.7968 16.025H58.1938C58.2391 16.3877 58.4148 16.688 58.7208 16.926C59.0381 17.164 59.4291 17.283 59.8938 17.283C60.3471 17.283 60.6985 17.1923 60.9478 17.011C61.2085 16.8297 61.3388 16.5973 61.3388 16.314C61.3388 16.008 61.1801 15.7813 60.8628 15.634C60.5568 15.4753 60.0638 15.3053 59.3838 15.124C58.6811 14.954 58.1031 14.7783 57.6498 14.597C57.2078 14.4157 56.8225 14.138 56.4938 13.764C56.1765 13.39 56.0178 12.8857 56.0178 12.251C56.0178 11.7297 56.1651 11.2537 56.4598 10.823C56.7658 10.3923 57.1965 10.0523 57.7518 9.803C58.3185 9.55367 58.9815 9.429 59.7408 9.429C60.8628 9.429 61.7581 9.71233 62.4268 10.279C63.0955 10.8343 63.4638 11.588 63.5318 12.54H61.2538C61.2198 12.166 61.0611 11.8713 60.7778 11.656C60.5058 11.4293 60.1375 11.316 59.6728 11.316C59.2421 11.316 58.9078 11.3953 58.6698 11.554C58.4431 11.7127 58.3298 11.9337 58.3298 12.217C58.3298 12.5343 58.4885 12.778 58.8058 12.948C59.1231 13.1067 59.6161 13.271 60.2848 13.441C60.9648 13.611 61.5258 13.7867 61.9678 13.968C62.4098 14.1493 62.7895 14.4327 63.1068 14.818C63.4355 15.192 63.6055 15.6907 63.6168 16.314C63.6168 16.858 63.4638 17.3453 63.1578 17.776C62.8631 18.2067 62.4325 18.5467 61.8658 18.796C61.3105 19.034 60.6588 19.153 59.9108 19.153ZM68.3415 11.537V16.093C68.3415 16.4103 68.4151 16.6427 68.5625 16.79C68.7211 16.926 68.9818 16.994 69.3445 16.994L70.4495 16.994V19L68.9535 19C66.9475 19 65.9445 18.0253 65.9445 16.076V11.537H64.8225V9.582H65.9445V7.253H68.3415V9.582H70.4495V11.537H68.3415ZM73.3683 8.46C72.9489 8.46 72.5976 8.32967 72.3143 8.069C72.0423 7.797 71.9063 7.46267 71.9063 7.066C71.9063 6.66933 72.0423 6.34067 72.3143 6.08C72.5976 5.808 72.9489 5.672 73.3683 5.672C73.7876 5.672 74.1333 5.808 74.4053 6.08C74.6886 6.34067 74.8303 6.66933 74.8303 7.066C74.8303 7.46267 74.6886 7.797 74.4053 8.069C74.1333 8.32967 73.7876 8.46 73.3683 8.46ZM74.5413 9.582V19H72.1613V9.582H74.5413ZM81.0747 19.153C80.1681 19.153 79.3521 18.9547 78.6267 18.558C77.9014 18.15 77.3291 17.5777 76.9097 16.841C76.5017 16.1043 76.2977 15.2543 76.2977 14.291C76.2977 13.3277 76.5074 12.4777 76.9267 11.741C77.3574 11.0043 77.9411 10.4377 78.6777 10.041C79.4144 9.633 80.2361 9.429 81.1427 9.429C82.0494 9.429 82.8711 9.633 83.6077 10.041C84.3444 10.4377 84.9224 11.0043 85.3417 11.741C85.7724 12.4777 85.9877 13.3277 85.9877 14.291C85.9877 15.2543 85.7667 16.1043 85.3247 16.841C84.8941 17.5777 84.3047 18.15 83.5567 18.558C82.8201 18.9547 81.9927 19.153 81.0747 19.153ZM81.0747 17.079C81.5054 17.079 81.9077 16.977 82.2817 16.773C82.6671 16.5577 82.9731 16.2403 83.1997 15.821C83.4264 15.4017 83.5397 14.8917 83.5397 14.291C83.5397 13.3957 83.3017 12.71 82.8257 12.234C82.3611 11.7467 81.7887 11.503 81.1087 11.503C80.4287 11.503 79.8564 11.7467 79.3917 12.234C78.9384 12.71 78.7117 13.3957 78.7117 14.291C78.7117 15.1863 78.9327 15.8777 79.3747 16.365C79.8281 16.841 80.3947 17.079 81.0747 17.079ZM92.9525 9.446C94.0745 9.446 94.9812 9.803 95.6725 10.517C96.3639 11.2197 96.7095 12.2057 96.7095 13.475V19H94.3295V13.798C94.3295 13.05 94.1425 12.4777 93.7685 12.081C93.3945 11.673 92.8845 11.469 92.2385 11.469C91.5812 11.469 91.0599 11.673 90.6745 12.081C90.3005 12.4777 90.1135 13.05 90.1135 13.798V19H87.7335V9.582H90.1135V10.755C90.4309 10.347 90.8332 10.0297 91.3205 9.803C91.8192 9.565 92.3632 9.446 92.9525 9.446ZM102.577 19.153C101.806 19.153 101.115 19.017 100.503 18.745C99.8908 18.4617 99.4035 18.082 99.0408 17.606C98.6895 17.13 98.4968 16.603 98.4628 16.025H100.86C100.905 16.3877 101.081 16.688 101.387 16.926C101.704 17.164 102.095 17.283 102.56 17.283C103.013 17.283 103.364 17.1923 103.614 17.011C103.874 16.8297 104.005 16.5973 104.005 16.314C104.005 16.008 103.846 15.7813 103.529 15.634C103.223 15.4753 102.73 15.3053 102.05 15.124C101.347 14.954 100.769 14.7783 100.316 14.597C99.8738 14.4157 99.4885 14.138 99.1598 13.764C98.8425 13.39 98.6838 12.8857 98.6838 12.251C98.6838 11.7297 98.8311 11.2537 99.1258 10.823C99.4318 10.3923 99.8625 10.0523 100.418 9.803C100.984 9.55367 101.647 9.429 102.407 9.429C103.529 9.429 104.424 9.71233 105.093 10.279C105.761 10.8343 106.13 11.588 106.198 12.54L103.92 12.54C103.886 12.166 103.727 11.8713 103.444 11.656C103.172 11.4293 102.803 11.316 102.339 11.316C101.908 11.316 101.574 11.3953 101.336 11.554C101.109 11.7127 100.996 11.9337 100.996 12.217C100.996 12.5343 101.154 12.778 101.472 12.948C101.789 13.1067 102.282 13.271 102.951 13.441C103.631 13.611 104.192 13.7867 104.634 13.968C105.076 14.1493 105.455 14.4327 105.773 14.818C106.101 15.192 106.271 15.6907 106.283 16.314C106.283 16.858 106.13 17.3453 105.824 17.776C105.529 18.2067 105.098 18.5467 104.532 18.796C103.976 19.034 103.325 19.153 102.577 19.153ZM116.605 11.537H114.956V19H112.542V11.537H111.471V9.582H112.542V9.106C112.542 7.95 112.871 7.1 113.528 6.556C114.186 6.012 115.177 5.757 116.503 5.791V7.797C115.925 7.78567 115.523 7.882 115.296 8.086C115.07 8.29 114.956 8.65833 114.956 9.191V9.582H116.605V11.537ZM122.33 19.153C121.423 19.153 120.607 18.9547 119.882 18.558C119.156 18.15 118.584 17.5777 118.165 16.841C117.757 16.1043 117.553 15.2543 117.553 14.291C117.553 13.3277 117.762 12.4777 118.182 11.741C118.612 11.0043 119.196 10.4377 119.933 10.041C120.669 9.633 121.491 9.429 122.398 9.429C123.304 9.429 124.126 9.633 124.863 10.041C125.599 10.4377 126.177 11.0043 126.597 11.741C127.027 12.4777 127.243 13.3277 127.243 14.291C127.243 15.2543 127.022 16.1043 126.58 16.841C126.149 17.5777 125.56 18.15 124.812 18.558C124.075 18.9547 123.248 19.153 122.33 19.153ZM122.33 17.079C122.76 17.079 123.163 16.977 123.537 16.773C123.922 16.5577 124.228 16.2403 124.455 15.821C124.681 15.4017 124.795 14.8917 124.795 14.291C124.795 13.3957 124.557 12.71 124.081 12.234C123.616 11.7467 123.044 11.503 122.364 11.503C121.684 11.503 121.111 11.7467 120.647 12.234C120.193 12.71 119.967 13.3957 119.967 14.291C119.967 15.1863 120.188 15.8777 120.63 16.365C121.083 16.841 121.65 17.079 122.33 17.079ZM131.368 11.044C131.674 10.5453 132.071 10.1543 132.558 9.871C133.057 9.58767 133.624 9.446 134.258 9.446V11.945H133.629C132.881 11.945 132.315 12.1207 131.929 12.472C131.555 12.8233 131.368 13.4353 131.368 14.308V19H128.988V9.582H131.368V11.044ZM148.922 9.582L143.091 23.454H140.558L142.598 18.762L138.824 9.582H141.493L143.924 16.161L146.389 9.582H148.922ZM154.387 19.153C153.481 19.153 152.665 18.9547 151.939 18.558C151.214 18.15 150.642 17.5777 150.222 16.841C149.814 16.1043 149.61 15.2543 149.61 14.291C149.61 13.3277 149.82 12.4777 150.239 11.741C150.67 11.0043 151.254 10.4377 151.99 10.041C152.727 9.633 153.549 9.429 154.455 9.429C155.362 9.429 156.184 9.633 156.92 10.041C157.657 10.4377 158.235 11.0043 158.654 11.741C159.085 12.4777 159.3 13.3277 159.3 14.291C159.3 15.2543 159.079 16.1043 158.637 16.841C158.207 17.5777 157.617 18.15 156.869 18.558C156.133 18.9547 155.305 19.153 154.387 19.153ZM154.387 17.079C154.818 17.079 155.22 16.977 155.594 16.773C155.98 16.5577 156.286 16.2403 156.512 15.821C156.739 15.4017 156.852 14.8917 156.852 14.291C156.852 13.3957 156.614 12.71 156.138 12.234C155.674 11.7467 155.101 11.503 154.421 11.503C153.741 11.503 153.169 11.7467 152.704 12.234C152.251 12.71 152.024 13.3957 152.024 14.291C152.024 15.1863 152.245 15.8777 152.687 16.365C153.141 16.841 153.707 17.079 154.387 17.079ZM169.937 9.582V19H167.54V17.81C167.234 18.218 166.832 18.541 166.333 18.779C165.846 19.0057 165.313 19.119 164.735 19.119C163.998 19.119 163.347 18.966 162.78 18.66C162.213 18.3427 161.766 17.8837 161.437 17.283C161.12 16.671 160.961 15.9457 160.961 15.107V9.582H163.341V14.767C163.341 15.515 163.528 16.093 163.902 16.501C164.276 16.8977 164.786 17.096 165.432 17.096C166.089 17.096 166.605 16.8977 166.979 16.501C167.353 16.093 167.54 15.515 167.54 14.767V9.582H169.937Z" fill="#A9A9A9"/>
</svg>
