<svg width="40" height="11" viewBox="0 0 40 11" fill="none" xmlns="http://www.w3.org/2000/svg">
<path d="M5.4929 3.78267C5.45881 3.43892 5.3125 3.17187 5.05398 2.98153C4.79545 2.79119 4.4446 2.69602 4.00142 2.69602C3.70028 2.69602 3.44602 2.73864 3.23864 2.82386C3.03125 2.90625 2.87216 3.02131 2.76136 3.16903C2.65341 3.31676 2.59943 3.48438 2.59943 3.67188C2.59375 3.82812 2.62642 3.96449 2.69744 4.08097C2.77131 4.19744 2.87216 4.2983 3 4.38352C3.12784 4.46591 3.27557 4.53835 3.44318 4.60085C3.6108 4.66051 3.78977 4.71165 3.98011 4.75426L4.7642 4.94176C5.14489 5.02699 5.49432 5.14062 5.8125 5.28267C6.13068 5.42472 6.40625 5.59943 6.6392 5.80682C6.87216 6.0142 7.05256 6.25852 7.1804 6.53977C7.31108 6.82102 7.37784 7.14347 7.38068 7.5071C7.37784 8.04119 7.24148 8.50426 6.97159 8.89631C6.70455 9.28551 6.31818 9.58807 5.8125 9.80398C5.30966 10.017 4.70313 10.1236 3.9929 10.1236C3.28835 10.1236 2.67472 10.0156 2.15199 9.79972C1.6321 9.58381 1.22585 9.2642 0.933239 8.84091C0.643466 8.41477 0.491477 7.88778 0.477273 7.25994H2.26278C2.28267 7.55256 2.36648 7.79687 2.5142 7.9929C2.66477 8.18608 2.86506 8.33239 3.11506 8.43182C3.3679 8.52841 3.65341 8.5767 3.97159 8.5767C4.28409 8.5767 4.5554 8.53125 4.78551 8.44034C5.01847 8.34943 5.19886 8.22301 5.3267 8.06108C5.45455 7.89915 5.51847 7.71307 5.51847 7.50284C5.51847 7.30682 5.46023 7.14205 5.34375 7.00852C5.23011 6.875 5.0625 6.76136 4.84091 6.66761C4.62216 6.57386 4.35369 6.48864 4.03551 6.41193L3.08523 6.1733C2.34943 5.99432 1.76847 5.71449 1.34233 5.33381C0.916193 4.95312 0.704545 4.44034 0.707386 3.79545C0.704545 3.26705 0.84517 2.8054 1.12926 2.41051C1.41619 2.01562 1.80966 1.70739 2.30966 1.4858C2.80966 1.2642 3.37784 1.15341 4.0142 1.15341C4.66193 1.15341 5.22727 1.2642 5.71023 1.4858C6.19602 1.70739 6.57386 2.01562 6.84375 2.41051C7.11364 2.8054 7.25284 3.26278 7.26136 3.78267H5.4929ZM9.87891 10L8.09766 3.45455H9.9343L10.9485 7.85227H11.0082L12.065 3.45455H13.8675L14.9414 7.8267H14.9968L15.994 3.45455H17.8263L16.0494 10H14.1275L13.0025 5.88352H12.9215L11.7965 10H9.87891ZM18.7947 10V3.45455H20.6101V10H18.7947ZM19.7067 2.6108C19.4368 2.6108 19.2053 2.52131 19.0121 2.34233C18.8217 2.16051 18.7266 1.94318 18.7266 1.69034C18.7266 1.44034 18.8217 1.22585 19.0121 1.04688C19.2053 0.865057 19.4368 0.774147 19.7067 0.774147C19.9766 0.774147 20.2067 0.865057 20.397 1.04688C20.5902 1.22585 20.6868 1.44034 20.6868 1.69034C20.6868 1.94318 20.5902 2.16051 20.397 2.34233C20.2067 2.52131 19.9766 2.6108 19.7067 2.6108ZM25.5458 3.45455V4.81818H21.604V3.45455H25.5458ZM22.4989 1.88636H24.3143V7.98864C24.3143 8.15625 24.3398 8.28693 24.391 8.38068C24.4421 8.47159 24.5131 8.53551 24.604 8.57244C24.6978 8.60937 24.8058 8.62784 24.9279 8.62784C25.0131 8.62784 25.0984 8.62074 25.1836 8.60653C25.2688 8.58949 25.3342 8.5767 25.3796 8.56818L25.6651 9.91903C25.5742 9.94744 25.4464 9.98011 25.2816 10.017C25.1168 10.0568 24.9165 10.081 24.6808 10.0895C24.2433 10.1065 23.8597 10.0483 23.5302 9.91477C23.2035 9.78125 22.9492 9.57386 22.7674 9.29261C22.5856 9.01136 22.4961 8.65625 22.4989 8.22727V1.88636ZM29.6154 10.1278C28.945 10.1278 28.3683 9.9858 27.8853 9.7017C27.4052 9.41477 27.0359 9.01705 26.7773 8.50852C26.5217 8 26.3938 7.41477 26.3938 6.75284C26.3938 6.08239 26.5231 5.49432 26.7816 4.98864C27.043 4.48011 27.4137 4.08381 27.8938 3.79972C28.3739 3.51278 28.945 3.36932 29.6069 3.36932C30.1779 3.36932 30.6779 3.47301 31.1069 3.6804C31.5359 3.88778 31.8754 4.17898 32.1254 4.55398C32.3754 4.92898 32.5131 5.36932 32.5387 5.875H30.8256C30.7773 5.5483 30.6495 5.28551 30.4421 5.08665C30.2376 4.88494 29.9691 4.78409 29.6367 4.78409C29.3555 4.78409 29.1097 4.8608 28.8995 5.0142C28.6921 5.16477 28.5302 5.38494 28.4137 5.67472C28.2972 5.96449 28.239 6.31534 28.239 6.72727C28.239 7.14489 28.2958 7.5 28.4094 7.79261C28.5259 8.08523 28.6893 8.30824 28.8995 8.46165C29.1097 8.61506 29.3555 8.69176 29.6367 8.69176C29.8441 8.69176 30.0302 8.64915 30.195 8.56392C30.3626 8.47869 30.5004 8.35511 30.6083 8.19318C30.7191 8.02841 30.7915 7.83097 30.8256 7.60085H32.5387C32.5103 8.10085 32.3739 8.54119 32.1296 8.92188C31.8881 9.29972 31.5543 9.59517 31.1282 9.80824C30.7021 10.0213 30.1978 10.1278 29.6154 10.1278ZM35.5163 6.21591V10H33.701V1.27273H35.4652V4.60938H35.5419C35.6896 4.22301 35.9283 3.92045 36.2578 3.7017C36.5874 3.48011 37.0007 3.36932 37.4979 3.36932C37.9524 3.36932 38.3487 3.46875 38.6868 3.66761C39.0277 3.86364 39.2919 4.14631 39.4794 4.51562C39.6697 4.8821 39.7635 5.32102 39.7607 5.83239V10H37.9453V6.15625C37.9482 5.75284 37.8459 5.43892 37.6385 5.21449C37.4339 4.99006 37.147 4.87784 36.7777 4.87784C36.5305 4.87784 36.3118 4.9304 36.1214 5.03551C35.9339 5.14062 35.7862 5.29403 35.6783 5.49574C35.5732 5.6946 35.5192 5.93466 35.5163 6.21591Z" fill="#6E8AEF"/>
</svg>
