<svg width="51" height="12" viewBox="0 0 51 12" fill="none" xmlns="http://www.w3.org/2000/svg">
<path d="M4.85156 8.23242C4.46094 8.56445 4.08398 8.79883 3.7207 8.93555C3.36133 9.07227 2.97461 9.14062 2.56055 9.14062C1.87695 9.14062 1.35156 8.97461 0.984375 8.64258C0.617188 8.30664 0.433594 7.87891 0.433594 7.35938C0.433594 7.05469 0.501953 6.77734 0.638672 6.52734C0.779297 6.27344 0.960938 6.07031 1.18359 5.91797C1.41016 5.76562 1.66406 5.65039 1.94531 5.57227C2.15234 5.51758 2.46484 5.46484 2.88281 5.41406C3.73438 5.3125 4.36133 5.19141 4.76367 5.05078C4.76758 4.90625 4.76953 4.81445 4.76953 4.77539C4.76953 4.3457 4.66992 4.04297 4.4707 3.86719C4.20117 3.62891 3.80078 3.50977 3.26953 3.50977C2.77344 3.50977 2.40625 3.59766 2.16797 3.77344C1.93359 3.94531 1.75977 4.25195 1.64648 4.69336L0.615234 4.55273C0.708984 4.11133 0.863281 3.75586 1.07813 3.48633C1.29297 3.21289 1.60352 3.00391 2.00977 2.85938C2.41602 2.71094 2.88672 2.63672 3.42188 2.63672C3.95312 2.63672 4.38477 2.69922 4.7168 2.82422C5.04883 2.94922 5.29297 3.10742 5.44922 3.29883C5.60547 3.48633 5.71484 3.72461 5.77734 4.01367C5.8125 4.19336 5.83008 4.51758 5.83008 4.98633V6.39258C5.83008 7.37305 5.85156 7.99414 5.89453 8.25586C5.94141 8.51367 6.03125 8.76172 6.16406 9H5.0625C4.95312 8.78125 4.88281 8.52539 4.85156 8.23242ZM4.76367 5.87695C4.38086 6.0332 3.80664 6.16602 3.04102 6.27539C2.60742 6.33789 2.30078 6.4082 2.12109 6.48633C1.94141 6.56445 1.80273 6.67969 1.70508 6.83203C1.60742 6.98047 1.55859 7.14648 1.55859 7.33008C1.55859 7.61133 1.66406 7.8457 1.875 8.0332C2.08984 8.2207 2.40234 8.31445 2.8125 8.31445C3.21875 8.31445 3.58008 8.22656 3.89648 8.05078C4.21289 7.87109 4.44531 7.62695 4.59375 7.31836C4.70703 7.08008 4.76367 6.72852 4.76367 6.26367V5.87695ZM11.5488 9V8.08594C11.0645 8.78906 10.4062 9.14062 9.57422 9.14062C9.20703 9.14062 8.86328 9.07031 8.54297 8.92969C8.22656 8.78906 7.99023 8.61328 7.83398 8.40234C7.68164 8.1875 7.57422 7.92578 7.51172 7.61719C7.46875 7.41016 7.44727 7.08203 7.44727 6.63281V2.77734H8.50195V6.22852C8.50195 6.7793 8.52344 7.15039 8.56641 7.3418C8.63281 7.61914 8.77344 7.83789 8.98828 7.99805C9.20312 8.1543 9.46875 8.23242 9.78516 8.23242C10.1016 8.23242 10.3984 8.15234 10.6758 7.99219C10.9531 7.82812 11.1484 7.60742 11.2617 7.33008C11.3789 7.04883 11.4375 6.64258 11.4375 6.11133V2.77734H12.4922V9H11.5488ZM14.127 9V0.410156H15.1816V9H14.127ZM16.8281 1.62305V0.410156L17.8828 0.410156V1.62305L16.8281 1.62305ZM16.8281 9V2.77734L17.8828 2.77734V9H16.8281ZM23.5547 8.23242C23.1641 8.56445 22.7871 8.79883 22.4238 8.93555C22.0645 9.07227 21.6777 9.14062 21.2637 9.14062C20.5801 9.14062 20.0547 8.97461 19.6875 8.64258C19.3203 8.30664 19.1367 7.87891 19.1367 7.35938C19.1367 7.05469 19.2051 6.77734 19.3418 6.52734C19.4824 6.27344 19.6641 6.07031 19.8867 5.91797C20.1133 5.76562 20.3672 5.65039 20.6484 5.57227C20.8555 5.51758 21.168 5.46484 21.5859 5.41406C22.4375 5.3125 23.0645 5.19141 23.4668 5.05078C23.4707 4.90625 23.4727 4.81445 23.4727 4.77539C23.4727 4.3457 23.373 4.04297 23.1738 3.86719C22.9043 3.62891 22.5039 3.50977 21.9727 3.50977C21.4766 3.50977 21.1094 3.59766 20.8711 3.77344C20.6367 3.94531 20.4629 4.25195 20.3496 4.69336L19.3184 4.55273C19.4121 4.11133 19.5664 3.75586 19.7812 3.48633C19.9961 3.21289 20.3066 3.00391 20.7129 2.85937C21.1191 2.71094 21.5898 2.63672 22.125 2.63672C22.6562 2.63672 23.0879 2.69922 23.4199 2.82422C23.752 2.94922 23.9961 3.10742 24.1523 3.29883C24.3086 3.48633 24.418 3.72461 24.4805 4.01367C24.5156 4.19336 24.5332 4.51758 24.5332 4.98633V6.39258C24.5332 7.37305 24.5547 7.99414 24.5977 8.25586C24.6445 8.51367 24.7344 8.76172 24.8672 9H23.7656C23.6562 8.78125 23.5859 8.52539 23.5547 8.23242ZM23.4668 5.87695C23.084 6.0332 22.5098 6.16602 21.7441 6.27539C21.3105 6.33789 21.0039 6.4082 20.8242 6.48633C20.6445 6.56445 20.5059 6.67969 20.4082 6.83203C20.3105 6.98047 20.2617 7.14648 20.2617 7.33008C20.2617 7.61133 20.3672 7.8457 20.5781 8.0332C20.793 8.2207 21.1055 8.31445 21.5156 8.31445C21.9219 8.31445 22.2832 8.22656 22.5996 8.05078C22.916 7.87109 23.1484 7.62695 23.2969 7.31836C23.4102 7.08008 23.4668 6.72852 23.4668 6.26367V5.87695ZM30.2344 8.23242C29.8438 8.56445 29.4668 8.79883 29.1035 8.93555C28.7441 9.07227 28.3574 9.14062 27.9434 9.14062C27.2598 9.14062 26.7344 8.97461 26.3672 8.64258C26 8.30664 25.8164 7.87891 25.8164 7.35938C25.8164 7.05469 25.8848 6.77734 26.0215 6.52734C26.1621 6.27344 26.3438 6.07031 26.5664 5.91797C26.793 5.76562 27.0469 5.65039 27.3281 5.57227C27.5352 5.51758 27.8477 5.46484 28.2656 5.41406C29.1172 5.3125 29.7441 5.19141 30.1465 5.05078C30.1504 4.90625 30.1523 4.81445 30.1523 4.77539C30.1523 4.3457 30.0527 4.04297 29.8535 3.86719C29.584 3.62891 29.1836 3.50977 28.6523 3.50977C28.1562 3.50977 27.7891 3.59766 27.5508 3.77344C27.3164 3.94531 27.1426 4.25195 27.0293 4.69336L25.998 4.55273C26.0918 4.11133 26.2461 3.75586 26.4609 3.48633C26.6758 3.21289 26.9863 3.00391 27.3926 2.85937C27.7988 2.71094 28.2695 2.63672 28.8047 2.63672C29.3359 2.63672 29.7676 2.69922 30.0996 2.82422C30.4316 2.94922 30.6758 3.10742 30.832 3.29883C30.9883 3.48633 31.0977 3.72461 31.1602 4.01367C31.1953 4.19336 31.2129 4.51758 31.2129 4.98633V6.39258C31.2129 7.37305 31.2344 7.99414 31.2773 8.25586C31.3242 8.51367 31.4141 8.76172 31.5469 9H30.4453C30.3359 8.78125 30.2656 8.52539 30.2344 8.23242ZM30.1465 5.87695C29.7637 6.0332 29.1895 6.16602 28.4238 6.27539C27.9902 6.33789 27.6836 6.4082 27.5039 6.48633C27.3242 6.56445 27.1855 6.67969 27.0879 6.83203C26.9902 6.98047 26.9414 7.14648 26.9414 7.33008C26.9414 7.61133 27.0469 7.8457 27.2578 8.0332C27.4727 8.2207 27.7852 8.31445 28.1953 8.31445C28.6016 8.31445 28.9629 8.22656 29.2793 8.05078C29.5957 7.87109 29.8281 7.62695 29.9766 7.31836C30.0898 7.08008 30.1465 6.72852 30.1465 6.26367V5.87695ZM36.9141 8.23242C36.5234 8.56445 36.1465 8.79883 35.7832 8.93555C35.4238 9.07227 35.0371 9.14062 34.623 9.14062C33.9395 9.14062 33.4141 8.97461 33.0469 8.64258C32.6797 8.30664 32.4961 7.87891 32.4961 7.35938C32.4961 7.05469 32.5645 6.77734 32.7012 6.52734C32.8418 6.27344 33.0234 6.07031 33.2461 5.91797C33.4727 5.76562 33.7266 5.65039 34.0078 5.57227C34.2148 5.51758 34.5273 5.46484 34.9453 5.41406C35.7969 5.3125 36.4238 5.19141 36.8262 5.05078C36.8301 4.90625 36.832 4.81445 36.832 4.77539C36.832 4.3457 36.7324 4.04297 36.5332 3.86719C36.2637 3.62891 35.8633 3.50977 35.332 3.50977C34.8359 3.50977 34.4688 3.59766 34.2305 3.77344C33.9961 3.94531 33.8223 4.25195 33.709 4.69336L32.6777 4.55273C32.7715 4.11133 32.9258 3.75586 33.1406 3.48633C33.3555 3.21289 33.666 3.00391 34.0723 2.85937C34.4785 2.71094 34.9492 2.63672 35.4844 2.63672C36.0156 2.63672 36.4473 2.69922 36.7793 2.82422C37.1113 2.94922 37.3555 3.10742 37.5117 3.29883C37.668 3.48633 37.7773 3.72461 37.8398 4.01367C37.875 4.19336 37.8926 4.51758 37.8926 4.98633V6.39258C37.8926 7.37305 37.9141 7.99414 37.957 8.25586C38.0039 8.51367 38.0938 8.76172 38.2266 9H37.125C37.0156 8.78125 36.9453 8.52539 36.9141 8.23242ZM36.8262 5.87695C36.4434 6.0332 35.8691 6.16602 35.1035 6.27539C34.6699 6.33789 34.3633 6.4082 34.1836 6.48633C34.0039 6.56445 33.8652 6.67969 33.7676 6.83203C33.6699 6.98047 33.6211 7.14648 33.6211 7.33008C33.6211 7.61133 33.7266 7.8457 33.9375 8.0332C34.1523 8.2207 34.4648 8.31445 34.875 8.31445C35.2812 8.31445 35.6426 8.22656 35.959 8.05078C36.2754 7.87109 36.5078 7.62695 36.6562 7.31836C36.7695 7.08008 36.8262 6.72852 36.8262 6.26367V5.87695ZM39.4863 11.3965L39.3691 10.4062C39.5996 10.4687 39.8008 10.5 39.9727 10.5C40.207 10.5 40.3945 10.4609 40.5352 10.3828C40.6758 10.3047 40.791 10.1953 40.8809 10.0547C40.9473 9.94922 41.0547 9.6875 41.2031 9.26953C41.2227 9.21094 41.2539 9.125 41.2969 9.01172L38.9355 2.77734H40.0723L41.3672 6.38086C41.5352 6.83789 41.6855 7.31836 41.8184 7.82227C41.9395 7.33789 42.084 6.86523 42.252 6.4043L43.582 2.77734H44.6367L42.2695 9.10547C42.0156 9.78906 41.8184 10.2598 41.6777 10.5176C41.4902 10.8652 41.2754 11.1191 41.0332 11.2793C40.791 11.4434 40.502 11.5254 40.166 11.5254C39.9629 11.5254 39.7363 11.4824 39.4863 11.3965ZM45.4863 11.3965L45.3691 10.4062C45.5996 10.4687 45.8008 10.5 45.9727 10.5C46.207 10.5 46.3945 10.4609 46.5352 10.3828C46.6758 10.3047 46.791 10.1953 46.8809 10.0547C46.9473 9.94922 47.0547 9.6875 47.2031 9.26953C47.2227 9.21094 47.2539 9.125 47.2969 9.01172L44.9355 2.77734H46.0723L47.3672 6.38086C47.5352 6.83789 47.6855 7.31836 47.8184 7.82227C47.9395 7.33789 48.084 6.86523 48.252 6.4043L49.582 2.77734H50.6367L48.2695 9.10547C48.0156 9.78906 47.8184 10.2598 47.6777 10.5176C47.4902 10.8652 47.2754 11.1191 47.0332 11.2793C46.791 11.4434 46.502 11.5254 46.166 11.5254C45.9629 11.5254 45.7363 11.4824 45.4863 11.3965Z" fill="#23262F"/>
</svg>
